<?xml version="1.0" encoding="utf-8"?>
<!-- Generator: Adobe Illustrator 27.5.0, SVG Export Plug-In . SVG Version: 6.00 Build 0)  -->
<svg version="1.1" id="Layer_1" xmlns="http://www.w3.org/2000/svg" xmlns:xlink="http://www.w3.org/1999/xlink" x="0px" y="0px"
	 viewBox="0 0 570 330" style="enable-background:new 0 0 570 330;" xml:space="preserve">
<g>
	<ellipse style="opacity:0.2;" cx="284.713" cy="271.434" rx="246.093" ry="9.885"/>
	<g>
		<g>
			<polygon style="fill:#AE6A44;" points="474.392,271.21 495.765,271.21 491.447,189.506 485.077,189.506 			"/>
		</g>
		<g>
			<polygon style="fill:#9B5A3A;" points="474.392,271.21 486.7,271.21 485.077,189.506 485.077,189.506 			"/>
		</g>
		<g>
			<path style="fill:#7FAA2D;" d="M487.953,156.587c0,5.013,4.509,9.075,10.067,9.075c5.563,0,10.07-4.062,10.07-9.075
				c0-5.009-4.507-9.075-10.07-9.075C492.462,147.513,487.953,151.578,487.953,156.587z"/>
		</g>
		<g>
			<path style="fill:#7FAA2D;" d="M475.091,141.403c0,8.384,7.544,15.184,16.845,15.184c9.306,0,16.848-6.8,16.848-15.184
				c0-8.388-7.542-15.188-16.848-15.188C482.635,126.215,475.091,133.016,475.091,141.403z"/>
		</g>
		<g>
			<path style="fill:#7FAA2D;" d="M464.018,130.194c0,6.192,5.566,11.209,12.43,11.209c6.865,0,12.432-5.017,12.432-11.209
				c0-6.186-5.566-11.202-12.432-11.202C469.584,118.993,464.018,124.009,464.018,130.194z"/>
		</g>
		<g>
			<path style="fill:#7FAA2D;" d="M449.533,156.587c0,3.093,2.783,5.603,6.215,5.603c3.434,0,6.213-2.51,6.213-5.603
				c0-3.096-2.779-5.603-6.213-5.603C452.316,150.985,449.533,153.492,449.533,156.587z"/>
		</g>
		<g>
			<path style="fill:#7FAA2D;" d="M452.204,147.234c0,8.388,7.542,15.188,16.849,15.188c9.305,0,16.846-6.8,16.846-15.188
				s-7.541-15.188-16.846-15.188C459.746,132.046,452.204,138.846,452.204,147.234z"/>
		</g>
		<g>
			<path style="fill:#7FAA2D;" d="M461.961,165.015c0,8.388,7.544,15.188,16.851,15.188c9.304,0,16.848-6.8,16.848-15.188
				c0-8.388-7.544-15.188-16.848-15.188C469.505,149.827,461.961,156.627,461.961,165.015z"/>
		</g>
		<g>
			<path style="fill:#7FAA2D;" d="M484.151,174.004c0,9.976,8.971,18.066,20.04,18.066c11.063,0,20.038-8.091,20.038-18.066
				c0-9.977-8.976-18.064-20.038-18.064C493.122,155.94,484.151,164.027,484.151,174.004z"/>
		</g>
		<g>
			<path style="fill:#7FAA2D;" d="M488.053,205.938c0,9.976,8.972,18.067,20.038,18.067c11.063,0,20.038-8.092,20.038-18.067
				s-8.975-18.064-20.038-18.064C497.024,187.874,488.053,195.962,488.053,205.938z"/>
		</g>
		<g>
			<path style="fill:#7FAA2D;" d="M458.774,210.477c0,9.972,8.969,18.06,20.037,18.06c11.064,0,20.038-8.088,20.038-18.06
				c0-9.976-8.974-18.063-20.038-18.063C467.743,192.414,458.774,200.501,458.774,210.477z"/>
		</g>
		<g>
			<path style="fill:#7FAA2D;" d="M450.917,165.015c0,6.518,5.867,11.802,13.101,11.802c7.235,0,13.098-5.284,13.098-11.802
				c0-6.521-5.862-11.806-13.098-11.806C456.784,153.209,450.917,158.494,450.917,165.015z"/>
		</g>
		<g>
			<path style="fill:#7FAA2D;" d="M469.053,187.643c0,11.152,10.028,20.188,22.395,20.188s22.395-9.035,22.395-20.188
				c0-11.147-10.028-20.183-22.395-20.183S469.053,176.495,469.053,187.643z"/>
		</g>
		<g>
			<path style="fill:#7FAA2D;" d="M508.783,187.531c0,5.736,5.16,10.392,11.529,10.392c6.367,0,11.531-4.655,11.531-10.392
				c0-5.74-5.164-10.392-11.531-10.392C513.943,177.14,508.783,181.791,508.783,187.531z"/>
		</g>
		<g style="opacity:0.2;">
			<path d="M486.7,165.478c0-4.054,3.643-7.335,8.134-7.335c3.628,0,6.697,2.138,7.75,5.089c0.524-0.062,1.062-0.094,1.607-0.094
				c6.661,0,12.06,4.865,12.06,10.869c0,2.94-1.297,5.61-3.405,7.567c0.785,0.915,1.254,2.058,1.254,3.309
				c0,2.988-2.69,5.415-6.009,5.415c-3.32,0-6.012-2.427-6.012-5.415c0-0.061,0.008-0.115,0.01-0.173
				c-5.657-0.895-9.962-5.343-9.962-10.703c0-0.539,0.045-1.06,0.131-1.573C489.029,171.457,486.7,168.716,486.7,165.478z"/>
		</g>
		<g>
			<path style="fill:#7FAA2D;" d="M480.988,174.792c0-4.051,3.643-7.332,8.139-7.332c3.624,0,6.692,2.138,7.747,5.093
				c0.525-0.068,1.059-0.101,1.608-0.101c6.657,0,12.059,4.864,12.059,10.868c0,2.948-1.302,5.614-3.405,7.57
				c0.785,0.915,1.256,2.063,1.256,3.303c0,2.995-2.691,5.422-6.011,5.422c-3.322,0-6.012-2.427-6.012-5.422
				c0-0.054,0.006-0.108,0.006-0.167c-5.657-0.896-9.957-5.341-9.957-10.706c0-0.531,0.047-1.059,0.126-1.576
				C483.316,180.774,480.988,178.032,480.988,174.792z"/>
		</g>
		<g style="opacity:0.2;">
			<path d="M482.86,133.634c0-2.712-2.438-4.912-5.451-4.912c-2.427,0-4.481,1.429-5.187,3.407c-0.349-0.04-0.71-0.065-1.076-0.065
				c-4.455,0-8.074,3.259-8.074,7.281c0,1.968,0.869,3.751,2.28,5.067c-0.527,0.611-0.844,1.374-0.844,2.21
				c0,2.007,1.804,3.628,4.028,3.628c2.225,0,4.026-1.621,4.026-3.628c0-0.036-0.006-0.072-0.01-0.112
				c3.791-0.6,6.672-3.581,6.672-7.165c0-0.362-0.031-0.712-0.088-1.056C481.302,137.638,482.86,135.801,482.86,133.634z"/>
		</g>
		<g>
			<path style="fill:#7FAA2D;" d="M486.684,139.87c0-2.709-2.44-4.908-5.449-4.908c-2.431,0-4.484,1.429-5.189,3.407
				c-0.351-0.044-0.711-0.065-1.076-0.065c-4.458,0-8.075,3.259-8.075,7.277c0,1.971,0.866,3.754,2.283,5.067
				c-0.526,0.611-0.842,1.378-0.842,2.213c0,2.001,1.802,3.632,4.026,3.632c2.222,0,4.022-1.631,4.022-3.632
				c0-0.04-0.006-0.076-0.006-0.116c3.789-0.597,6.668-3.581,6.668-7.165c0-0.362-0.027-0.709-0.083-1.056
				C485.121,143.877,486.684,142.036,486.684,139.87z"/>
		</g>
		<g>
			<path style="fill:#7FAA2D;" d="M440.466,186.84c0,9.232,8.305,16.718,18.548,16.718s18.542-7.486,18.542-16.718
				c0-9.23-8.299-16.714-18.542-16.714S440.466,177.609,440.466,186.84z"/>
		</g>
		<g>
			<path style="fill:#7FAA2D;" d="M442.963,206.636c0,9.458,8.507,17.13,18.998,17.13c10.493,0,19.004-7.672,19.004-17.13
				c0-9.462-8.511-17.13-19.004-17.13C451.47,189.506,442.963,197.174,442.963,206.636z"/>
		</g>
		<g style="opacity:0.2;">
			<path d="M479.562,185.252c0-3.57-3.21-6.467-7.172-6.467c-3.201,0-5.907,1.885-6.833,4.488c-0.465-0.054-0.935-0.087-1.416-0.087
				c-5.872,0-10.634,4.294-10.634,9.589c0,2.594,1.142,4.944,3.004,6.67c-0.694,0.803-1.109,1.816-1.109,2.912
				c0,2.641,2.371,4.781,5.303,4.781c2.927,0,5.3-2.141,5.3-4.781c0-0.047-0.008-0.098-0.01-0.145
				c4.989-0.793,8.778-4.714,8.778-9.438c0-0.474-0.04-0.939-0.109-1.393C477.509,190.525,479.562,188.105,479.562,185.252z"/>
		</g>
		<g>
			<path style="fill:#7FAA2D;" d="M484.597,193.467c0-3.57-3.212-6.467-7.175-6.467c-3.197,0-5.902,1.887-6.83,4.488
				c-0.463-0.055-0.936-0.084-1.418-0.084c-5.872,0-10.633,4.287-10.633,9.586c0,2.59,1.144,4.947,3.002,6.665
				c-0.691,0.814-1.107,1.816-1.107,2.919c0,2.634,2.372,4.779,5.299,4.779c2.931,0,5.304-2.146,5.304-4.779
				c0-0.051-0.008-0.097-0.008-0.151c4.987-0.788,8.777-4.709,8.777-9.433c0-0.475-0.037-0.938-0.112-1.39
				C482.544,198.74,484.597,196.32,484.597,193.467z"/>
		</g>
	</g>
	<g>
		<g>
			<polygon style="fill:#AE6A44;" points="85.219,263.679 63.847,263.679 68.164,181.975 74.533,181.975 			"/>
		</g>
		<g>
			<polygon style="fill:#9B5A3A;" points="85.219,263.679 72.911,263.679 74.533,181.975 74.533,181.975 			"/>
		</g>
		<g>
			<path style="fill:#7FAA2D;" d="M71.658,149.056c0,5.013-4.508,9.075-10.068,9.075c-5.563,0-10.07-4.062-10.07-9.075
				c0-5.009,4.507-9.075,10.07-9.075C67.149,139.98,71.658,144.046,71.658,149.056z"/>
		</g>
		<g>
			<path style="fill:#7FAA2D;" d="M84.52,133.872c0,8.384-7.544,15.184-16.845,15.184c-9.306,0-16.848-6.8-16.848-15.184
				c0-8.388,7.541-15.188,16.848-15.188C76.976,118.684,84.52,125.484,84.52,133.872z"/>
		</g>
		<g>
			<path style="fill:#7FAA2D;" d="M95.593,122.663c0,6.192-5.566,11.209-12.429,11.209c-6.866,0-12.433-5.017-12.433-11.209
				c0-6.186,5.567-11.202,12.433-11.202C90.027,111.461,95.593,116.477,95.593,122.663z"/>
		</g>
		<g>
			<path style="fill:#7FAA2D;" d="M110.078,149.056c0,3.093-2.784,5.603-6.214,5.603c-3.434,0-6.213-2.51-6.213-5.603
				c0-3.096,2.779-5.603,6.213-5.603C107.294,143.453,110.078,145.96,110.078,149.056z"/>
		</g>
		<g>
			<path style="fill:#7FAA2D;" d="M107.407,139.702c0,8.388-7.542,15.188-16.849,15.188c-9.305,0-16.846-6.8-16.846-15.188
				c0-8.388,7.541-15.187,16.846-15.187C99.865,124.515,107.407,131.314,107.407,139.702z"/>
		</g>
		<g>
			<path style="fill:#7FAA2D;" d="M97.65,157.483c0,8.388-7.544,15.189-16.851,15.189c-9.304,0-16.848-6.801-16.848-15.189
				s7.544-15.188,16.848-15.188C90.106,142.295,97.65,149.096,97.65,157.483z"/>
		</g>
		<g>
			<path style="fill:#7FAA2D;" d="M75.46,166.472c0,9.976-8.971,18.066-20.04,18.066c-11.062,0-20.038-8.091-20.038-18.066
				c0-9.976,8.976-18.063,20.038-18.063C66.489,148.408,75.46,156.496,75.46,166.472z"/>
		</g>
		<g>
			<path style="fill:#7FAA2D;" d="M71.558,198.406c0,9.976-8.972,18.067-20.038,18.067c-11.064,0-20.039-8.092-20.039-18.067
				c0-9.976,8.975-18.063,20.039-18.063C62.587,180.343,71.558,188.431,71.558,198.406z"/>
		</g>
		<g>
			<path style="fill:#7FAA2D;" d="M100.837,202.946c0,9.972-8.968,18.059-20.037,18.059c-11.064,0-20.038-8.087-20.038-18.059
				c0-9.977,8.974-18.064,20.038-18.064C91.868,184.883,100.837,192.97,100.837,202.946z"/>
		</g>
		<g>
			<path style="fill:#7FAA2D;" d="M108.694,157.483c0,6.518-5.867,11.802-13.101,11.802c-7.235,0-13.097-5.284-13.097-11.802
				c0-6.521,5.862-11.806,13.097-11.806C102.827,145.678,108.694,150.962,108.694,157.483z"/>
		</g>
		<g>
			<path style="fill:#7FAA2D;" d="M90.558,180.111c0,11.151-10.028,20.187-22.394,20.187c-12.367,0-22.395-9.035-22.395-20.187
				c0-11.147,10.028-20.183,22.395-20.183C80.53,159.929,90.558,168.964,90.558,180.111z"/>
		</g>
		<g>
			<path style="fill:#7FAA2D;" d="M50.828,179.999c0,5.736-5.16,10.392-11.529,10.392c-6.368,0-11.531-4.655-11.531-10.392
				c0-5.74,5.164-10.392,11.531-10.392C45.668,169.607,50.828,174.259,50.828,179.999z"/>
		</g>
		<g style="opacity:0.2;">
			<path d="M72.911,157.946c0-4.054-3.642-7.335-8.134-7.335c-3.627,0-6.697,2.138-7.749,5.089
				c-0.525-0.061-1.062-0.094-1.608-0.094c-6.661,0-12.059,4.865-12.059,10.869c0,2.941,1.296,5.611,3.405,7.567
				c-0.785,0.915-1.255,2.059-1.255,3.31c0,2.988,2.691,5.414,6.009,5.414c3.32,0,6.012-2.426,6.012-5.414
				c0-0.062-0.007-0.115-0.009-0.174c5.657-0.894,9.961-5.342,9.961-10.703c0-0.538-0.045-1.059-0.131-1.573
				C70.582,163.925,72.911,161.184,72.911,157.946z"/>
		</g>
		<g>
			<path style="fill:#7FAA2D;" d="M78.622,167.26c0-4.051-3.642-7.331-8.138-7.331c-3.625,0-6.693,2.138-7.748,5.092
				c-0.525-0.069-1.058-0.101-1.608-0.101c-6.657,0-12.059,4.865-12.059,10.869c0,2.948,1.302,5.613,3.405,7.57
				c-0.785,0.915-1.255,2.061-1.255,3.303c0,2.994,2.691,5.422,6.01,5.422c3.322,0,6.011-2.428,6.011-5.422
				c0-0.055-0.005-0.109-0.005-0.167c5.657-0.896,9.957-5.342,9.957-10.706c0-0.531-0.047-1.06-0.127-1.577
				C76.295,173.242,78.622,170.501,78.622,167.26z"/>
		</g>
		<g style="opacity:0.2;">
			<path d="M76.75,126.102c0-2.712,2.438-4.912,5.452-4.912c2.426,0,4.481,1.429,5.187,3.407c0.349-0.04,0.71-0.065,1.076-0.065
				c4.456,0,8.075,3.259,8.075,7.281c0,1.968-0.87,3.751-2.281,5.067c0.527,0.611,0.843,1.374,0.843,2.21
				c0,2.008-1.804,3.628-4.028,3.628c-2.224,0-4.026-1.62-4.026-3.628c0-0.036,0.005-0.072,0.009-0.112
				c-3.791-0.601-6.672-3.581-6.672-7.165c0-0.362,0.031-0.712,0.087-1.056C78.31,130.106,76.75,128.269,76.75,126.102z"/>
		</g>
		<g>
			<path style="fill:#7FAA2D;" d="M72.927,132.338c0-2.709,2.44-4.908,5.449-4.908c2.43,0,4.485,1.429,5.188,3.407
				c0.351-0.043,0.71-0.065,1.076-0.065c4.458,0,8.075,3.259,8.075,7.277c0,1.971-0.866,3.754-2.282,5.067
				c0.526,0.611,0.841,1.378,0.841,2.213c0,2.001-1.802,3.632-4.026,3.632c-2.223,0-4.022-1.631-4.022-3.632
				c0-0.04,0.005-0.076,0.005-0.116c-3.789-0.597-6.668-3.581-6.668-7.165c0-0.362,0.028-0.709,0.083-1.056
				C74.49,136.346,72.927,134.504,72.927,132.338z"/>
		</g>
		<g>
			<path style="fill:#7FAA2D;" d="M119.146,179.309c0,9.23-8.305,16.717-18.548,16.717s-18.543-7.486-18.543-16.717
				s8.299-16.714,18.543-16.714S119.146,170.078,119.146,179.309z"/>
		</g>
		<g>
			<path style="fill:#7FAA2D;" d="M116.648,199.105c0,9.458-8.507,17.13-18.998,17.13c-10.493,0-19.004-7.672-19.004-17.13
				c0-9.463,8.511-17.13,19.004-17.13C108.141,181.975,116.648,189.642,116.648,199.105z"/>
		</g>
		<g style="opacity:0.2;">
			<path d="M80.049,177.721c0-3.57,3.209-6.467,7.172-6.467c3.201,0,5.907,1.885,6.833,4.487c0.464-0.053,0.935-0.086,1.416-0.086
				c5.872,0,10.633,4.293,10.633,9.589c0,2.593-1.143,4.943-3.004,6.67c0.695,0.803,1.109,1.815,1.109,2.911
				c0,2.641-2.371,4.782-5.303,4.782c-2.926,0-5.299-2.142-5.299-4.782c0-0.047,0.008-0.098,0.009-0.145
				c-4.989-0.792-8.778-4.713-8.778-9.437c0-0.475,0.04-0.94,0.11-1.393C82.102,182.994,80.049,180.574,80.049,177.721z"/>
		</g>
		<g>
			<path style="fill:#7FAA2D;" d="M75.014,185.935c0-3.57,3.212-6.467,7.174-6.467c3.198,0,5.903,1.888,6.831,4.488
				c0.463-0.055,0.936-0.083,1.417-0.083c5.872,0,10.633,4.286,10.633,9.585c0,2.59-1.143,4.948-3.002,6.666
				c0.692,0.815,1.108,1.816,1.108,2.919c0,2.634-2.373,4.778-5.299,4.778c-2.931,0-5.304-2.145-5.304-4.778
				c0-0.051,0.007-0.097,0.007-0.151c-4.986-0.789-8.777-4.71-8.777-9.434c0-0.474,0.038-0.936,0.113-1.389
				C77.067,191.208,75.014,188.788,75.014,185.935z"/>
		</g>
	</g>
	<g>
		<path style="fill:#252956;" d="M211.676,262.099c0,3.42-2.769,6.2-6.188,6.2H80.386c-3.426,0-6.198-2.78-6.198-6.2V175.36
			c0-3.417,2.771-6.188,6.198-6.188h125.102c3.42,0,6.188,2.771,6.188,6.188V262.099z"/>
		<rect x="82.034" y="177.43" style="fill:#D4EFFF;" width="123.084" height="77.651"/>
		<path style="fill:#1B2044;" d="M230.726,263.752c0,2.855-2.313,5.167-5.162,5.167H61.588c-2.852,0-5.162-2.312-5.162-5.167l0,0
			c0-2.851,2.31-5.157,5.162-5.157h163.977C228.414,258.595,230.726,260.901,230.726,263.752L230.726,263.752z"/>
		<path style="fill:#1B2044;" d="M165.504,172.474c0,0.688-0.554,1.242-1.244,1.242h-47.117c-0.681,0-1.242-0.555-1.242-1.242l0,0
			c0-0.684,0.561-1.234,1.242-1.234h47.117C164.95,171.239,165.504,171.79,165.504,172.474L165.504,172.474z"/>
	</g>
	<g>
		<g>
			<g>
				<path style="fill:#CCDDFC;" d="M144.387,185.972c0,3.117,2.519,5.645,5.634,5.645h123.837c3.121,0,5.643-2.527,5.643-5.645
					v-77.658c0-3.115-2.523-5.642-5.643-5.642H150.021c-3.115,0-5.634,2.527-5.634,5.642V185.972z"/>
			</g>
			<g>
				<path style="fill:#007DC9;" d="M150.021,102.672h123.837c3.121,0,5.643,2.527,5.643,5.642v10.475H144.387v-10.475
					C144.387,105.199,146.906,102.672,150.021,102.672z"/>
			</g>
			<g>
				<path style="fill:#FFFFFF;" d="M265.825,110.785c0,1.538,1.252,2.794,2.804,2.794c1.548,0,2.799-1.256,2.799-2.794
					c0-1.556-1.251-2.804-2.799-2.804C267.077,107.981,265.825,109.229,265.825,110.785z"/>
			</g>
			<g>
				<path style="fill:#FFFFFF;" d="M258.748,110.785c0,1.538,1.256,2.794,2.808,2.794c1.544,0,2.8-1.256,2.8-2.794
					c0-1.556-1.256-2.804-2.8-2.804C260.004,107.981,258.748,109.229,258.748,110.785z"/>
			</g>
			<g>
				<path style="fill:#FFFFFF;" d="M251.922,110.785c0,1.538,1.253,2.794,2.804,2.794c1.544,0,2.796-1.256,2.796-2.794
					c0-1.556-1.252-2.804-2.796-2.804C253.175,107.981,251.922,109.229,251.922,110.785z"/>
			</g>
		</g>
	</g>
	<g>
		<g>
			<rect x="123.81" y="137.92" style="fill:#E1EDFF;" width="93.927" height="93.925"/>
		</g>
		<g>
			<rect x="123.81" y="137.92" style="fill:#007DC9;" width="93.927" height="8.871"/>
		</g>
		<g>
			<path style="fill:#FFFFFF;" d="M210.14,142.678c0,1.14,0.81,2.059,1.802,2.059c0.997,0,1.799-0.919,1.799-2.059
				c0-1.135-0.802-2.054-1.799-2.054C210.95,140.624,210.14,141.544,210.14,142.678z"/>
		</g>
		<g>
			<path style="fill:#FFFFFF;" d="M204.736,142.678c0,1.14,0.81,2.059,1.802,2.059s1.804-0.919,1.804-2.059
				c0-1.135-0.811-2.054-1.804-2.054S204.736,141.544,204.736,142.678z"/>
		</g>
		<g>
			<path style="fill:#FFFFFF;" d="M199.337,142.678c0,1.14,0.806,2.059,1.798,2.059c1,0,1.802-0.919,1.802-2.059
				c0-1.135-0.802-2.054-1.802-2.054C200.143,140.624,199.337,141.544,199.337,142.678z"/>
		</g>
		<g>
			<rect x="128.602" y="154.575" style="fill:#FFFFFF;" width="85.14" height="15.688"/>
		</g>
		<g>
			<rect x="128.602" y="208.822" style="fill:#FFFFFF;" width="85.14" height="15.688"/>
		</g>
		<g>
			<rect x="173.022" y="172.949" style="fill:#FFFFFF;" width="40.72" height="13.893"/>
		</g>
		<g>
			<rect x="173.022" y="189.278" style="fill:#FFFFFF;" width="40.72" height="13.901"/>
		</g>
		<g>
			<rect x="128.602" y="172.949" style="fill:#FFFFFF;" width="37.708" height="30.23"/>
		</g>
	</g>
	<g>
		<polygon style="fill:#EA9D15;" points="130.333,252.39 250.169,252.39 253.833,189.61 126.669,189.61 		"/>
		<path style="fill:#EA9D15;" d="M186.528,198.061c0,7.868-8.066,14.248-18.018,14.248l-40.832,0.363l-1.624-28.857h42.456
			C178.462,183.815,186.528,190.196,186.528,198.061z"/>
		<rect x="129.508" y="196.33" style="fill:#D7D4FF;" width="121.485" height="49.579"/>
		<polygon style="fill:#D7D4FF;" points="252.582,248.688 138.12,248.688 138.12,199.108 255.779,198.245 		"/>
		<rect x="131.958" y="193.435" style="fill:#FFFFFF;" width="119.15" height="49.577"/>
		
			<rect x="166.745" y="158.646" transform="matrix(0.2678 -0.9635 0.9635 0.2678 -70.014 344.3159)" style="fill:#BCC0ED;" width="49.577" height="119.154"/>
		<rect x="136.63" y="199.108" style="fill:#FFFFFF;" width="113.628" height="49.579"/>
		<path style="fill:#FEC045;" d="M255.1,206.633l0.679-11.592h-44.28c-9.183,0-16.814,4.995-18.46,11.592h-70.545l3.821,62.777
			H251.32l2.772-45.511l0,0l0.003-0.047l1.046-17.22H255.1z"/>
		<path style="fill:#EA9D15;" d="M255.779,195.041h-6.906c0.176,1.713,0.294,3.441,0.294,5.189
			c0,36.727-39.568,66.496-88.378,66.496c-12.422,0-24.239-1.935-34.968-5.419l0.494,8.103H251.32l2.772-45.511l0.003-0.047
			l1.046-17.22H255.1L255.779,195.041z"/>
	</g>
	<g>
		<g>
			<g>
				<rect x="326.55" y="194.636" style="fill:#26A8F7;" width="49.638" height="75.616"/>
			</g>
		</g>
		<g>
			<g>
				<path style="fill:#007DC9;" d="M412.521,199.436c0,3.58-3.097,6.487-6.924,6.487h-76.995c-3.824,0-6.931-2.907-6.931-6.487l0,0
					c0-3.582,3.107-6.491,6.931-6.491h76.995C409.425,192.945,412.521,195.855,412.521,199.436L412.521,199.436z"/>
			</g>
		</g>
		<g>
			<g>
				<rect x="334.068" y="212.132" style="fill:#D4EFFF;" width="30.48" height="58.12"/>
			</g>
		</g>
		<g>
			<g>
				<rect x="337.986" y="215.519" style="fill:#26A8F7;" width="22.637" height="43.164"/>
			</g>
		</g>
		<g>
			<g>
				<rect x="341.529" y="219.046" style="fill:#D4EFFF;" width="15.605" height="15.578"/>
			</g>
		</g>
		<g>
			<g>
				<rect x="341.529" y="237.663" style="fill:#D4EFFF;" width="15.605" height="15.583"/>
			</g>
		</g>
		<g>
			<g>
				<rect x="415.262" y="168.683" style="fill:#26A8F7;" width="66.777" height="101.569"/>
			</g>
		</g>
		<g>
			<g>
				<rect x="415.262" y="255.018" style="fill:#D4EFFF;" width="66.777" height="15.234"/>
			</g>
		</g>
		<g>
			<g>
				<path style="fill:#007DC9;" d="M485.78,166.627c0,3.228-2.567,5.847-5.737,5.847h-80.242c-3.179,0-5.747-2.619-5.747-5.847l0,0
					c0-3.229,2.568-5.847,5.747-5.847h80.242C483.213,160.78,485.78,163.398,485.78,166.627L485.78,166.627z"/>
			</g>
		</g>
		<g>
			<g>
				<rect x="326.55" y="255.018" style="fill:#D4EFFF;" width="53.241" height="15.234"/>
			</g>
		</g>
		<g>
			<g>
				<rect x="321.672" y="258.405" style="fill:#26A8F7;" width="47.067" height="4.231"/>
			</g>
		</g>
		<g>
			<g>
				<rect x="312.444" y="262.643" style="fill:#D4EFFF;" width="56.295" height="4.227"/>
			</g>
		</g>
		<g>
			<g>
				<rect x="304.961" y="266.876" style="fill:#007DC9;" width="63.778" height="3.376"/>
			</g>
		</g>
		<g>
			<g>
				<g>
					<rect x="446.65" y="258.835" style="fill:#26A8F7;" width="47.066" height="4.224"/>
				</g>
			</g>
			<g>
				<g>
					<rect x="446.65" y="263.068" style="fill:#D4EFFF;" width="56.297" height="4.228"/>
				</g>
			</g>
			<g>
				<g>
					<rect x="446.65" y="267.303" style="fill:#007DC9;" width="63.778" height="3.375"/>
				</g>
			</g>
		</g>
		<g>
			<g>
				<rect x="453.892" y="181.656" style="fill:#D4EFFF;" width="20.702" height="30.476"/>
			</g>
		</g>
		<g>
			<g>
				<rect x="456.409" y="185.184" style="fill:#D4EFFF;" width="15.659" height="23.42"/>
			</g>
		</g>
		<g>
			<g>
				<rect x="453.892" y="215.519" style="fill:#D4EFFF;" width="20.702" height="30.469"/>
			</g>
		</g>
		<g>
			<g>
				<rect x="368.739" y="146.105" style="fill:#007DC9;" width="79.138" height="124.146"/>
			</g>
		</g>
		<g>
			<g>
				<rect x="368.739" y="255.018" style="fill:#007DC9;" width="79.138" height="15.234"/>
			</g>
		</g>
		<g>
			<g>
				<rect x="376.188" y="153.44" style="fill:#26A8F7;" width="63.731" height="97.066"/>
			</g>
		</g>
		<g>
			<g>
				<rect x="387.108" y="188.393" style="fill:#D4EFFF;" width="42.394" height="23.739"/>
			</g>
		</g>
		<g>
			<g>
				<rect x="389.85" y="191.145" style="fill:#D4EFFF;" width="36.553" height="18.236"/>
			</g>
		</g>
		<g>
			<g>
				<rect x="387.108" y="215.519" style="fill:#D4EFFF;" width="42.394" height="30.469"/>
			</g>
		</g>
		<g>
			<g>
				<path style="fill:#007DC9;" d="M454.049,144.055c0,3.227-2.568,5.847-5.731,5.847h-80.249c-3.176,0-5.741-2.62-5.741-5.847l0,0
					c0-3.229,2.565-5.842,5.741-5.842h80.249C451.48,138.213,454.049,140.826,454.049,144.055L454.049,144.055z"/>
			</g>
		</g>
		<g>
			<g>
				<rect x="389.85" y="219.046" style="fill:#D4EFFF;" width="36.908" height="23.409"/>
			</g>
		</g>
		<g>
			<g>
				<rect x="405.805" y="189.712" style="fill:#D4EFFF;" width="4.292" height="21.102"/>
			</g>
		</g>
		<g>
			<g>
				<rect x="387.108" y="159.039" style="fill:#D4EFFF;" width="42.394" height="23.74"/>
			</g>
		</g>
		<g>
			<g>
				<rect x="389.85" y="161.795" style="fill:#D4EFFF;" width="36.553" height="18.236"/>
			</g>
		</g>
		<g>
			<g>
				<rect x="405.805" y="160.358" style="fill:#D4EFFF;" width="4.292" height="21.102"/>
			</g>
		</g>
		<g>
			<g>
				<rect x="405.805" y="217.209" style="fill:#D4EFFF;" width="4.292" height="27.09"/>
			</g>
		</g>
		<g>
			<g>
				<rect x="462.924" y="183.063" style="fill:#D4EFFF;" width="2.635" height="27.658"/>
			</g>
		</g>
		<g>
			<g>
				<rect x="456.409" y="219.046" style="fill:#D4EFFF;" width="15.659" height="23.409"/>
			</g>
		</g>
		<g>
			<g>
				<rect x="462.924" y="216.924" style="fill:#D4EFFF;" width="2.635" height="27.654"/>
			</g>
		</g>
	</g>
	<g>
		<path style="fill:#F28F19;" d="M112.864,120.416l2.894-3.835c-7.894-6.549-19.902-10.735-33.366-10.735
			c-14.413,0-27.165,4.806-34.975,12.167l2.97,3.481c7.882-5.928,19.292-9.672,32.004-9.672
			C94.313,111.822,105.067,115.124,112.864,120.416z"/>
		<path style="fill:#F28F19;" d="M105.135,130.665l3.127-4.141c-6.848-4.5-15.815-7.237-25.64-7.237
			c-10.538,0-20.079,3.139-27.082,8.231l3.285,3.847c6.583-3.819,14.827-6.099,23.797-6.099
			C91.021,125.266,98.777,127.28,105.135,130.665z"/>
		<path style="fill:#F28F19;" d="M96.804,141.734l3.232-4.301c-5.045-2.96-11.057-4.699-17.524-4.699c-6.739,0-13,1.878-18.173,5.08
			l3.496,4.094c4.401-2.045,9.39-3.203,14.677-3.203C87.649,138.706,92.493,139.796,96.804,141.734z"/>
		<path style="fill:#F28F19;" d="M88.665,150.472c0,2.983-2.753,5.414-6.149,5.414c-3.392,0-6.149-2.431-6.149-5.414
			c0-2.993,2.757-5.42,6.149-5.42C85.912,145.052,88.665,147.479,88.665,150.472z"/>
	</g>
	<g>
		<path style="fill:#FFB21B;" d="M81.588,266.641v4.819h0.074c0.765,1.287,7.93,2.295,16.657,2.295
			c8.727,0,15.891-1.008,16.659-2.295h0.07v-4.819H81.588z"/>
		<path style="fill:#FFC91D;" d="M87.679,266.792v6.384c1.691,0.213,3.662,0.376,5.815,0.473v-6.856H87.679z"/>
		<path style="fill:#FFC91D;" d="M94.59,267.941v5.751c0.473,0.017,0.951,0.029,1.436,0.04v-5.791H94.59z"/>
		<path style="fill:#FFE984;" d="M115.048,266.641c0,1.2-7.49,2.173-16.729,2.173c-9.241,0-16.731-0.973-16.731-2.173
			c0-1.202,7.49-2.174,16.731-2.174C107.558,264.467,115.048,265.439,115.048,266.641z"/>
		<path style="fill:#FFB21B;" d="M110.992,266.771c0,0.91-5.673,1.648-12.673,1.648c-7.003,0-12.674-0.738-12.674-1.648
			c0-0.909,5.672-1.648,12.674-1.648C105.319,265.122,110.992,265.861,110.992,266.771z"/>
		<path style="fill:#FFC91D;" d="M109.725,266.938c0,0.817-5.106,1.482-11.406,1.482c-6.3,0-11.408-0.664-11.408-1.482
			c0-0.819,5.107-1.482,11.408-1.482C104.619,265.455,109.725,266.118,109.725,266.938z"/>
	</g>
	<g>
		<g>
			<path style="fill:#FFB21B;" d="M453.541,269.572v4.82h0.073c0.768,1.285,7.933,2.295,16.658,2.295
				c8.727,0,15.89-1.01,16.659-2.295h0.073v-4.82H453.541z"/>
			<path style="fill:#FFC91D;" d="M459.633,269.723v6.387c1.691,0.212,3.66,0.373,5.815,0.47v-6.856H459.633z"/>
			<path style="fill:#FFC91D;" d="M466.543,270.873v5.751c0.472,0.017,0.951,0.032,1.436,0.04v-5.791H466.543z"/>
			<path style="fill:#FFE984;" d="M487.005,269.572c0,1.2-7.491,2.175-16.732,2.175c-9.239,0-16.732-0.975-16.732-2.175
				c0-1.201,7.492-2.173,16.732-2.173C479.514,267.399,487.005,268.371,487.005,269.572z"/>
			<path style="fill:#FFB21B;" d="M482.948,269.703c0,0.909-5.679,1.647-12.676,1.647c-6.998,0-12.674-0.738-12.674-1.647
				c0-0.909,5.676-1.646,12.674-1.646C477.27,268.058,482.948,268.794,482.948,269.703z"/>
			<path style="fill:#FED150;" d="M481.68,269.869c0,0.818-5.109,1.481-11.407,1.481c-6.3,0-11.407-0.663-11.407-1.481
				c0-0.818,5.107-1.484,11.407-1.484C476.57,268.385,481.68,269.051,481.68,269.869z"/>
		</g>
		<g>
			<path style="fill:#FFB21B;" d="M456.86,263.787v4.819h0.073c0.767,1.286,7.933,2.296,16.658,2.296
				c8.728,0,15.891-1.01,16.659-2.296h0.069v-4.819H456.86z"/>
			<path style="fill:#FFC91D;" d="M462.952,263.94v6.384c1.69,0.213,3.661,0.376,5.813,0.473v-6.856H462.952z"/>
			<path style="fill:#FFC91D;" d="M469.862,265.089v5.75c0.473,0.018,0.95,0.029,1.436,0.041v-5.791H469.862z"/>
			<path style="fill:#FFE984;" d="M490.32,263.787c0,1.201-7.488,2.174-16.728,2.174c-9.24,0-16.731-0.973-16.731-2.174
				c0-1.202,7.491-2.173,16.731-2.173C482.832,261.614,490.32,262.585,490.32,263.787z"/>
			<path style="fill:#FFB21B;" d="M486.266,263.918c0,0.91-5.675,1.648-12.674,1.648c-7.002,0-12.675-0.738-12.675-1.648
				c0-0.909,5.673-1.648,12.675-1.648C480.591,262.27,486.266,263.009,486.266,263.918z"/>
			<path style="fill:#FFC91D;" d="M484.998,264.084c0,0.818-5.107,1.482-11.406,1.482c-6.301,0-11.407-0.664-11.407-1.482
				c0-0.818,5.106-1.482,11.407-1.482C479.891,262.603,484.998,263.266,484.998,264.084z"/>
		</g>
	</g>
	<g>
		<path style="fill:#FFB21B;" d="M486.266,269.656v4.82h0.073c0.766,1.285,7.931,2.294,16.656,2.294
			c8.728,0,15.892-1.009,16.661-2.294h0.069v-4.82H486.266z"/>
		<path style="fill:#FFC91D;" d="M492.357,269.809v6.384c1.691,0.211,3.661,0.375,5.813,0.472v-6.855H492.357z"/>
		<path style="fill:#FFC91D;" d="M499.269,270.958v5.749c0.472,0.018,0.949,0.03,1.435,0.04v-5.789H499.269z"/>
		<path style="fill:#FFE984;" d="M519.726,269.656c0,1.2-7.49,2.173-16.73,2.173c-9.239,0-16.73-0.973-16.73-2.173
			c0-1.201,7.49-2.175,16.73-2.175C512.235,267.482,519.726,268.455,519.726,269.656z"/>
		<path style="fill:#FFB21B;" d="M515.669,269.787c0,0.91-5.673,1.646-12.674,1.646c-7,0-12.674-0.736-12.674-1.646
			c0-0.909,5.674-1.649,12.674-1.649C509.996,268.138,515.669,268.878,515.669,269.787z"/>
		<path style="fill:#FFC91D;" d="M514.402,269.953c0,0.818-5.105,1.48-11.407,1.48c-6.299,0-11.406-0.662-11.406-1.48
			c0-0.82,5.107-1.482,11.406-1.482C509.297,268.471,514.402,269.133,514.402,269.953z"/>
	</g>
	<g>
		<path style="fill:#FFB21B;" d="M451.835,257.108v4.82h0.072c0.768,1.285,7.934,2.293,16.659,2.293
			c8.726,0,15.89-1.008,16.658-2.293h0.074v-4.82H451.835z"/>
		<path style="fill:#FFC91D;" d="M457.926,257.258v6.386c1.692,0.212,3.661,0.374,5.815,0.471v-6.856H457.926z"/>
		<path style="fill:#FFC91D;" d="M464.837,258.406v5.753c0.472,0.016,0.952,0.031,1.437,0.04v-5.793H464.837z"/>
		<path style="fill:#FFE984;" d="M485.299,257.108c0,1.198-7.491,2.173-16.733,2.173c-9.24,0-16.731-0.975-16.731-2.173
			c0-1.202,7.491-2.175,16.731-2.175C477.808,254.934,485.299,255.906,485.299,257.108z"/>
		<path style="fill:#FFB21B;" d="M481.242,257.238c0,0.908-5.678,1.646-12.676,1.646c-6.999,0-12.675-0.738-12.675-1.646
			c0-0.91,5.676-1.645,12.675-1.645C475.564,255.594,481.242,256.328,481.242,257.238z"/>
		<path style="fill:#FED150;" d="M479.973,257.403c0,0.818-5.107,1.482-11.406,1.482c-6.3,0-11.408-0.663-11.408-1.482
			c0-0.818,5.108-1.483,11.408-1.483C474.865,255.92,479.973,256.585,479.973,257.403z"/>
	</g>
	<g>
		<path style="fill:#FFB21B;" d="M456.454,250.675v4.819h0.072c0.769,1.286,7.933,2.295,16.657,2.295
			c8.728,0,15.892-1.009,16.661-2.295h0.072v-4.819H456.454z"/>
		<path style="fill:#FFC91D;" d="M462.545,250.824v6.387c1.692,0.211,3.661,0.372,5.816,0.47v-6.856H462.545z"/>
		<path style="fill:#FFC91D;" d="M469.454,251.974v5.752c0.473,0.017,0.954,0.031,1.439,0.039v-5.791H469.454z"/>
		<path style="fill:#FFE984;" d="M489.917,250.675c0,1.198-7.491,2.173-16.733,2.173c-9.238,0-16.729-0.975-16.729-2.173
			c0-1.202,7.491-2.175,16.729-2.175C482.426,248.5,489.917,249.473,489.917,250.675z"/>
		<path style="fill:#FFB21B;" d="M485.861,250.806c0,0.908-5.679,1.646-12.678,1.646c-6.997,0-12.673-0.737-12.673-1.646
			c0-0.91,5.676-1.645,12.673-1.645C480.183,249.16,485.861,249.895,485.861,250.806z"/>
		<path style="fill:#FED150;" d="M484.593,250.97c0,0.819-5.108,1.482-11.409,1.482c-6.298,0-11.405-0.662-11.405-1.482
			c0-0.817,5.107-1.482,11.405-1.482C479.484,249.487,484.593,250.152,484.593,250.97z"/>
	</g>
	<g>
		<path style="fill:#FFB21B;" d="M366.525,268.448v4.82h0.072c0.769,1.285,7.934,2.293,16.659,2.293s15.89-1.008,16.659-2.293h0.073
			v-4.82H366.525z"/>
		<path style="fill:#FFC91D;" d="M372.616,268.598v6.386c1.692,0.212,3.661,0.374,5.816,0.471v-6.856H372.616z"/>
		<path style="fill:#FFC91D;" d="M379.527,269.746v5.753c0.473,0.016,0.952,0.031,1.438,0.04v-5.793H379.527z"/>
		<path style="fill:#FFE984;" d="M399.989,268.448c0,1.198-7.491,2.174-16.732,2.174c-9.24,0-16.732-0.976-16.732-2.174
			c0-1.202,7.491-2.175,16.732-2.175C392.498,266.273,399.989,267.246,399.989,268.448z"/>
		<path style="fill:#FFB21B;" d="M395.933,268.578c0,0.909-5.678,1.647-12.676,1.647c-6.999,0-12.675-0.737-12.675-1.647
			c0-0.909,5.676-1.645,12.675-1.645C390.255,266.934,395.933,267.669,395.933,268.578z"/>
		<path style="fill:#FED150;" d="M394.664,268.743c0,0.818-5.108,1.481-11.407,1.481c-6.3,0-11.408-0.663-11.408-1.481
			c0-0.818,5.108-1.483,11.408-1.483C389.556,267.26,394.664,267.925,394.664,268.743z"/>
	</g>
	<g>
		<path style="fill:#FFB21B;" d="M371.145,262.016v4.819h0.072c0.769,1.286,7.934,2.294,16.658,2.294
			c8.727,0,15.891-1.008,16.66-2.294h0.072v-4.819H371.145z"/>
		<path style="fill:#FFC91D;" d="M377.235,262.165v6.386c1.692,0.211,3.661,0.372,5.816,0.471v-6.857H377.235z"/>
		<path style="fill:#FFC91D;" d="M384.145,263.314v5.752c0.473,0.017,0.954,0.031,1.438,0.04v-5.792H384.145z"/>
		<path style="fill:#FFE984;" d="M404.607,262.016c0,1.197-7.491,2.172-16.732,2.172c-9.239,0-16.73-0.975-16.73-2.172
			c0-1.202,7.491-2.176,16.73-2.176C397.116,259.84,404.607,260.814,404.607,262.016z"/>
		<path style="fill:#FFB21B;" d="M400.553,262.146c0,0.908-5.68,1.645-12.678,1.645c-6.998,0-12.674-0.737-12.674-1.645
			c0-0.91,5.676-1.646,12.674-1.646C394.873,260.5,400.553,261.235,400.553,262.146z"/>
		<path style="fill:#FED150;" d="M399.284,262.31c0,0.819-5.109,1.481-11.409,1.481c-6.299,0-11.406-0.662-11.406-1.481
			c0-0.817,5.107-1.482,11.406-1.482C394.175,260.827,399.284,261.492,399.284,262.31z"/>
	</g>
	<g>
		<path style="fill:#FFB21B;" d="M87.679,261.81v4.821h0.071c0.769,1.284,7.934,2.293,16.658,2.293
			c8.728,0,15.891-1.009,16.661-2.293h0.074v-4.821H87.679z"/>
		<path style="fill:#FFC91D;" d="M93.77,261.96v6.386c1.691,0.212,3.661,0.374,5.816,0.472v-6.857H93.77z"/>
		<path style="fill:#FFC91D;" d="M100.68,263.109v5.752c0.472,0.016,0.953,0.031,1.437,0.04v-5.792H100.68z"/>
		<path style="fill:#FFE984;" d="M121.143,261.81c0,1.199-7.493,2.175-16.734,2.175c-9.238,0-16.729-0.976-16.729-2.175
			c0-1.201,7.491-2.174,16.729-2.174C113.649,259.636,121.143,260.608,121.143,261.81z"/>
		<path style="fill:#FFB21B;" d="M117.086,261.94c0,0.909-5.679,1.647-12.678,1.647c-6.997,0-12.673-0.737-12.673-1.647
			c0-0.909,5.675-1.646,12.673-1.646C111.407,260.295,117.086,261.031,117.086,261.94z"/>
		<path style="fill:#FED150;" d="M115.817,262.105c0,0.818-5.108,1.481-11.409,1.481c-6.298,0-11.406-0.663-11.406-1.481
			c0-0.818,5.108-1.484,11.406-1.484C110.709,260.621,115.817,261.287,115.817,262.105z"/>
	</g>
	<g>
		<path style="fill:#FFB21B;" d="M82.011,255.196v4.821h0.071c0.769,1.284,7.934,2.294,16.659,2.294
			c8.728,0,15.891-1.01,16.66-2.294h0.074v-4.821H82.011z"/>
		<path style="fill:#FFC91D;" d="M88.102,255.347v6.386c1.691,0.213,3.661,0.374,5.815,0.472v-6.857H88.102z"/>
		<path style="fill:#FFC91D;" d="M95.011,256.496v5.753c0.472,0.016,0.953,0.031,1.438,0.039v-5.792H95.011z"/>
		<path style="fill:#FFE984;" d="M115.475,255.196c0,1.199-7.493,2.175-16.734,2.175c-9.238,0-16.729-0.976-16.729-2.175
			c0-1.201,7.491-2.173,16.729-2.173C107.982,253.023,115.475,253.995,115.475,255.196z"/>
		<path style="fill:#FFB21B;" d="M111.418,255.327c0,0.909-5.679,1.647-12.678,1.647c-6.998,0-12.673-0.738-12.673-1.647
			c0-0.909,5.676-1.646,12.673-1.646C105.739,253.682,111.418,254.418,111.418,255.327z"/>
		<path style="fill:#FED150;" d="M110.149,255.493c0,0.817-5.108,1.481-11.408,1.481c-6.298,0-11.406-0.664-11.406-1.481
			c0-0.818,5.108-1.484,11.406-1.484C105.041,254.009,110.149,254.675,110.149,255.493z"/>
	</g>
	<g>
		<g>
			<g>
				<g>
					<g>
						<g>
							<path style="fill:#FFA09A;" d="M514.186,266.193c0.969-1.103,0.933-1.272,0.661-1.623c-0.227-0.307-0.505-0.602-0.806-0.894
								l2.137-1.301c0.434,0.782,0.762,1.494,0.922,2.071C516.94,264.65,515.679,266.303,514.186,266.193z"/>
						</g>
					</g>
				</g>
				<g>
					<g>
						<g>
							<path style="fill:#1D1B3A;" d="M517.1,264.447c0-0.019,0.021-0.04,0.021-0.04c1.212,1.809-1.554,2.879-3.182,3.114
								c-1.619,0.236,0.246-1.328,0.246-1.328C515.679,266.303,516.94,264.65,517.1,264.447z"/>
						</g>
					</g>
				</g>
			</g>
			<g>
				<g>
					<path style="fill:#007DC9;" d="M516.832,261.982c0.289,1.042-2.025,2.709-2.675,2.155c-5.59-4.749-11.571-15.084-13.799-19.31
						c-0.104-0.189-0.202-0.365-0.289-0.521c-1.113-1.824-1.753-1.451-5.535-9.891c-1.229-2.725-1.964-7.499-1.964-7.499l3.75-1.546
						l8.395-3.479c2.999,2.854,4.241,10.948,4.891,14.288c0.541,2.826,1.163,7.388,1.756,9.587
						C513.447,253.44,514.948,255.001,516.832,261.982z"/>
				</g>
			</g>
			<g>
				<g>
					<g>
						<g>
							<path style="fill:#FFA09A;" d="M492.311,268.261c1.356-0.594,1.385-0.77,1.29-1.202c-0.078-0.364-0.212-0.756-0.357-1.141
								l2.48-0.291c0.065,0.888,0.065,1.664-0.033,2.271C495.468,268.014,493.633,268.987,492.311,268.261z"/>
						</g>
					</g>
				</g>
				<g>
					<g>
						<g>
							<path style="fill:#1D1B3A;" d="M495.69,267.898c0.016-0.021,0.041-0.033,0.041-0.033c0.347,2.158-2.614,1.967-4.184,1.502
								c-1.583-0.464,0.763-1.106,0.763-1.106C493.633,268.987,495.468,268.014,495.69,267.898z"/>
						</g>
					</g>
				</g>
			</g>
			<g>
				<g>
					<path style="fill:#1D1B3A;" d="M501.097,241.553c-0.333,0.999-0.697,1.866-1.027,2.753c-1.113-1.824-1.753-1.451-5.535-9.891
						c-1.229-2.725-1.964-7.499-1.964-7.499l3.75-1.546l3.807,0.285C501.661,229.506,502.153,238.398,501.097,241.553z"/>
				</g>
			</g>
			<g>
				<g>
					<path style="fill:#007DC9;" d="M500.681,239.078c-0.702,2.793-2.248,5.676-2.248,9.602c0,7.971-0.754,9.74-1.939,16.862
						c-0.131,0.827-1.884,1.348-2.825,1.157c-0.144-0.029-0.273-0.07-0.364-0.145c-0.087-0.042-0.141-0.103-0.173-0.17
						c-3.081-6.647-5.152-17.956-5.424-22.717c-0.159-2.81-0.091-2.463,0.015-12.482c0.024-2.996,1.33-7.642,1.33-7.642
						l12.449,0.403C503.038,227.8,501.477,235.774,500.681,239.078z"/>
				</g>
			</g>
			<g>
				<g>
					<path style="fill:#FFFFFF;" d="M493.669,266.699c-0.144-0.029-0.273-0.07-0.364-0.145c-1.88-5.255-2.689-10.844-3.389-15.68
						c-0.588-4.097-1.254-8.755-1.272-13.331c-0.011-5.011,0.8-9.424,2.409-13.131c0.025-0.074,0.111-0.103,0.188-0.074
						c0.068,0.029,0.115,0.116,0.083,0.188c-1.591,3.662-2.399,8.048-2.391,13.017c0.018,4.561,0.68,9.206,1.276,13.305
						C490.918,255.726,491.746,261.403,493.669,266.699z"/>
				</g>
			</g>
			<g>
				<path style="fill:#1D1B3A;" d="M507.937,228.488c-0.763-2.672-1.792-5.237-3.225-6.602l-4.863,2.014l-10.8-0.356
					c0,0-0.275,0.983-0.574,2.339C493.214,229.689,501.324,231.087,507.937,228.488z"/>
			</g>
			<g>
				<g>
					<path style="fill:#EA493D;" d="M494.071,203.508c-2.412,1.838-4.459,6.318-5.423,20.983
						c-0.207,3.219,18.493,4.002,18.566,0.767c0.162-8.605-1.31-12.143-3.764-19.895
						C502.778,203.256,498.833,199.834,494.071,203.508z"/>
				</g>
			</g>
			<g>
				<g>
					<g>
						<g>
							<path style="fill:#FFA09A;" d="M477.371,202.363c0,0-0.781-4.681-1.447-3.152c-0.661,1.529-1.699,2.066-0.018,4.111
								L477.371,202.363z"/>
						</g>
					</g>
				</g>
				<g>
					<g>
						<g>
							<path style="fill:#E32E1B;" d="M496.798,204.933c2.613,1.981,2.404,3.914,1.139,5.477c-1.928,2.401-5.64,5.835-11.433,5.247
								c-5.797-0.582-10.897-12.53-10.897-12.53s0.245-1.346,1.575-1.146c0,0,5.552,8.429,10.736,7.779
								C490.423,209.445,494.306,203.056,496.798,204.933z"/>
						</g>
					</g>
				</g>
			</g>
			<g>
				<g>
					<path style="fill:#1D1B3A;" d="M495.814,189.363c-2.011,0.277-4.502,1.938-4.477,5.927c0.029,3.976-0.083,4.049-1.396,5.519
						c-3.402,3.778,5.589,3.35,3.294,7.252c-6.339,10.772,9.73,8.89,12.768,5.655c3.426-3.648,4.54-9.732,0.545-12.345
						c-1.327-0.857,1.023-5.548-2.181-6.447C501.173,194.017,503.569,188.315,495.814,189.363z"/>
				</g>
			</g>
		</g>
	</g>
	<g>
		<rect x="423.094" y="243.23" style="fill:#271628;" width="7.126" height="24.779"/>
		<path style="fill:#341F35;" d="M435.898,250.133c0,1.602-1.3,2.898-2.897,2.898h-12.485c-1.604,0-2.897-1.297-2.897-2.898l0,0
			c0-1.599,1.294-2.895,2.897-2.895h12.485C434.599,247.238,435.898,248.534,435.898,250.133L435.898,250.133z"/>
		<path style="fill:#341F35;" d="M453.715,223.298c0,14.892-12.069,26.961-26.957,26.961c-14.892,0-26.958-12.069-26.958-26.961
			c0-14.888,12.066-26.958,26.958-26.958C441.646,196.34,453.715,208.41,453.715,223.298z"/>
		<path style="fill:#26A8F7;" d="M437.664,232.474c0,6.021-4.883,10.906-10.906,10.906l0,0c-6.021,0-10.907-4.885-10.907-10.906
			v-19.441c0-6.022,4.886-10.906,10.907-10.906l0,0c6.024,0,10.906,4.884,10.906,10.906V232.474z"/>
		<path style="fill:#271628;" d="M437.664,268.458c0,1.883-1.527,3.41-3.413,3.41h-14.985c-1.885,0-3.415-1.527-3.415-3.41l0,0
			c0-1.887,1.53-3.417,3.415-3.417h14.985C436.137,265.041,437.664,266.571,437.664,268.458L437.664,268.458z"/>
		<path style="fill:#341F35;" d="M444.837,268.01h-36.353c-2.709,0-4.899,2.193-4.899,4.898h46.149
			C449.734,270.203,447.537,268.01,444.837,268.01z"/>
		<path style="fill:#D4EFFF;" d="M435.363,222.754c0,4.753-3.852,8.605-8.605,8.605c-4.754,0-8.606-3.853-8.606-8.605
			c0-4.754,3.853-8.608,8.606-8.608C431.511,214.145,435.363,218,435.363,222.754z"/>
		<path style="fill:#341F35;" d="M431.063,222.754c0,2.373-1.927,4.299-4.305,4.299c-2.377,0-4.303-1.926-4.303-4.299
			c0-2.379,1.926-4.307,4.303-4.307C429.136,218.447,431.063,220.375,431.063,222.754z"/>
	</g>
	<path style="fill:#EE9D7F;" d="M390.303,305.927c0,0-9.894-24.233-2.83-53.19c2.913-11.955,8.273-27.936-2.934-46.184
		c-12.846-20.917-23.531-46.433-30.962-46.734c-7.431-0.304,0.009,34.321,2.103,39.986c2.095,5.669,11.026,94.408,11.026,94.408
		L390.303,305.927z"/>
	<path style="fill:#E67052;" d="M357.004,182.171c0,0,14.656,17.416,15,29.608c0.344,12.19,11.046,26.719,4.824,44.128
		c-6.222,17.411-21.316-60.675-21.316-60.675L357.004,182.171z"/>
	<path style="fill:#EE9D7F;" d="M198.963,305.927c0,0,9.892-24.233,2.83-53.19c-2.915-11.955-8.273-27.936,2.933-46.184
		c12.847-20.917,23.534-46.433,30.964-46.734c7.429-0.304-0.012,34.321-2.105,39.986c-2.093,5.669-11.026,94.408-11.026,94.408
		L198.963,305.927z"/>
	<path style="fill:#E67052;" d="M232.263,182.171c0,0-14.658,17.416-15.001,29.608c-0.345,12.19-11.046,26.719-4.824,44.128
		c6.222,17.411,21.316-60.675,21.316-60.675L232.263,182.171z"/>
	<g>
		<path style="fill:#341F35;" d="M358.398,283.428c0,9.907-8.033,17.936-17.933,17.936h-93.263c-9.906,0-17.934-8.028-17.934-17.936
			V95.116c0-9.908,8.027-17.934,17.934-17.934h93.263c9.899,0,17.933,8.026,17.933,17.934V283.428z"/>
		<g>
			<defs>
				<path id="SVGID_1_" d="M349.164,104.958c0-9.084-6.87-16.451-15.367-16.451h-79.939c-8.484,0-15.368,7.367-15.368,16.451
					v172.795c0,0.254,0.059,0.503,0.066,0.75h110.542c0-0.247,0.065-0.496,0.065-0.75V104.958z"/>
			</defs>
			<clipPath id="SVGID_00000144339474747751288380000011786362900644131721_">
				<use xlink:href="#SVGID_1_"  style="overflow:visible;"/>
			</clipPath>
			<g style="clip-path:url(#SVGID_00000144339474747751288380000011786362900644131721_);">
				<g>
					<rect x="170.256" y="73.512" style="fill:#EBEBEC;" width="204.241" height="218.629"/>
				</g>
				<path style="fill:#FFAF00;" d="M285.886,292.067c-13.513-20.107-14.826-79.728-15.283-103.03
					c-0.026-1.188-0.046-2.234-0.065-3.128c-0.085-3.684-0.098-8.06-0.117-12.689c-0.06-17.804-0.151-42.184-4.291-57.511
					c-5.095-18.868-25.883-41.935-26.118-42.196h6.042c0.993,1.084,18.991,20.846,24.392,40.857
					c4.317,15.975,4.401,40.747,4.467,58.831c0.019,4.61,0.039,8.96,0.117,12.591c0.021,0.902,0.04,1.953,0.059,3.142
					c0.223,11.155,0.673,34.358,3.579,57.034c3.534,27.62,7.218,38.147,12.906,46.175L285.886,292.067z"/>
				<path style="fill:#FFAF00;" d="M300.502,292.142c-5.041-21.186-23.615-33.028-23.819-33.185l2.679-3.865
					c0.862,0.679,20.441,14.185,25.888,37.05H300.502z"/>
				<path style="fill:#FFAF00;" d="M270.662,292.067c1.711-12.389,7.224-23.896,7.662-24.725l3.913,2.363l-1.96-1.182l1.966,1.176
					c-0.105,0.202-5.793,11.148-7.02,22.441L270.662,292.067z"/>
				<g>
					<path style="fill:#FFFFFF;" d="M223.973,292.142c-0.483-16.44,0.993-37.064,5.133-78.031
						c1.195-11.842,2.43-24.073,3.455-35.882c2.234-25.902-1.234-40.858-4.532-48.851c-3.52-8.496-7.569-11.038-7.608-11.063
						l2.142-4.225c0.778,0.45,19.045,11.572,14.472,64.584c-1.018,11.841-2.266,24.099-3.461,35.952
						c-4.088,40.433-5.857,61.076-5.211,77.517H223.973z"/>
				</g>
				<g>
					<path style="fill:#FFFFFF;" d="M374.497,175.746c-14.779-14.981-16.451-38.003-13.676-68.319
						c1.437-15.642,1.039-24.935-5.858-33.85h5.186c5.446,6.936,7.118,12.722,5.146,34.32c-2.462,26.946-1.457,47.068,9.202,60.809
						V175.746z"/>
				</g>
				<g>
					<g>
						<path style="fill:#FFAF00;" d="M273.145,171.605l-0.719-2.05c8.797-3.488,14.661-9.405,17.431-17.568
							c7.21-21.199-8.418-50.994-8.568-51.288l1.771-1.078c0.666,1.254,16.241,30.976,8.725,53.11
							C288.792,161.529,282.522,167.884,273.145,171.605z"/>
					</g>
				</g>
				<g>
					<path style="fill:#007DC9;" d="M303.826,73.512c0,0-13.068,29.735-5.714,48.315c7.354,18.587,7.758,23.394,5.714,30.388
						c-2.038,6.995-6.126,20.99-6.126,30.61s-14.296,27.547-11.435,38.041c2.86,10.497,15.929,34.538,32.681,45.477
						c16.746,10.933,38.807,15.438,44.116,2.252c5.31-13.19,7.354-17.116,11.436-17.116v-17.058c0,0-20.018-8.745-25.326,6.119
						c-5.31,14.864-8.582,10.939-13.479,3.943c-4.9-6.994-20.834-6.563-16.746-23.179c4.074-16.621,24.505-36.735,13.48-58.157
						c-11.031-21.427-18.385-11.808-14.297-23.178c4.082-11.364,5.309-18.666-4.904-23.76c-10.215-5.094-15.112-0.287-5.311-42.699
						H303.826z"/>
				</g>
				<g>
					<path style="fill:#FFF1D6;" d="M307.914,179.326c0,0,7.354-4.807,10.619,3.5c3.272,8.308,0.816,20.115-5.309,20.115
						C307.092,202.941,302.193,188.508,307.914,179.326z"/>
				</g>
				<g>
					<path style="fill:#FFF1D6;" d="M303.826,226.552c0.712-2.352,3.677-6.994,6.948-6.559c3.267,0.438-1.495,9.19,1.907,13.559
						c3.402,4.37,5.18,9.619,0,8.309C307.503,240.541,301.561,234.095,303.826,226.552z"/>
				</g>
				<g>
					<path style="fill:#FFFFFF;" d="M212.23,227.607c-0.013-0.509-1.515-50.705,0.098-68.913
						c1.665-18.659,18.75-26.908,18.926-26.986l0.653,1.6c-0.163,0.079-16.386,7.929-17.953,25.556
						c-1.607,18.098-0.104,68.184-0.085,68.686L212.23,227.607z"/>
				</g>
				<g>
					<polygon style="fill:#FFFFFF;" points="228.453,229.612 170.256,225.427 170.256,223.311 228.571,227.864 					"/>
				</g>
				<g>
					<g>
						<path style="fill:#FFFFFF;" d="M170.256,153.751v-2.129c9.065-0.751,19.155-8.516,27.319-14.89
							c6.302-4.918,11.273-8.804,14.773-9c7.289-0.405,11.625-8.843,11.665-8.934l1.437,0.836
							c-0.189,0.385-4.819,9.391-13.015,9.848c-3.018,0.163-8.06,4.101-13.893,8.667
							C190.208,144.646,179.785,152.96,170.256,153.751z"/>
					</g>
				</g>
				<g>
					<path style="fill:#FFFFFF;" d="M374.497,226.552l-27.267-41.107l-0.032-0.085c-0.438-1.078-10.685-26.516-12.323-40.909
						c-1.594-14.146-17.629-56.114-17.792-56.539l1.516-0.66c0.66,1.731,16.276,42.607,17.902,56.989
						c1.554,13.734,11.494,38.67,12.154,40.341l25.842,38.292V226.552z"/>
				</g>
				<g>
					<path style="fill:#FFFFFF;" d="M335.867,240.051l-0.457-0.79c-0.398-0.673-9.555-16.556-8.282-23.376
						c1.247-6.681,21.65-24.157,23.969-26.13l1.02,1.372c-6.179,5.244-22.434,19.979-23.389,25.098
						c-0.893,4.828,4.815,16.341,7.61,21.317l31.112-23.636l0.947,1.424L335.867,240.051z"/>
				</g>
				<g>
					<g>
						<path style="fill:#FFAF00;" d="M256.582,292.142c-0.091-1.183-2.161-29.122,0.007-42.628
							c1.188-7.394-1.392-20.071-4.656-36.123c-2.607-12.813-5.571-27.338-7.328-42.771c-1.862-16.346-3.286-26.43-4.141-32.458
							c-1.052-7.484-1.306-9.261-0.64-10.391c0.248-0.411,0.313-0.516,15.074-4.48c7.138-1.913,14.348-3.808,14.42-3.827
							l0.392,1.698c-10.521,2.763-26.28,6.975-28.58,7.765c-0.188,0.901,0.216,3.748,0.953,8.974
							c0.85,6.034,2.28,16.131,4.142,32.504c1.75,15.348,4.703,29.833,7.301,42.614c3.305,16.242,5.917,29.069,4.676,36.789
							c-2.136,13.283-0.014,41.9,0.013,42.195L256.582,292.142z"/>
					</g>
				</g>
				<g>
					<path style="fill:#ABDE4A;" d="M170.256,101.203c0,0,6.942,5.101,17.966,4.67c11.037-0.444,20.958-2.018,33.765-2.326
						c12.807-0.3,30.376,4.892,27.104-5.578c-3.265-10.468-13.571-24.458-13.571-24.458h-65.263V101.203z"/>
				</g>
				<g>
					<path style="fill:#FFFFFF;" d="M176.271,117.034l-0.543-1.652c0.112-0.033,10.757-4.003,23.858-6.42
						c17.673-3.259,31.159-2.312,40.093,2.828l-0.777,1.541C218.331,101.491,176.683,116.877,176.271,117.034z"/>
				</g>
				<path style="fill:#FFAF00;" d="M198.339,121.625c-16.973,0-27.162-4.049-28.083-4.382v-4.983
					c0.235,0.085,15.981,6.015,32.845,4.33c17.437-1.737,59.129-10.997,74.915-17.346c1.097-0.444,2.39-0.973,3.846-1.581
					c17.908-7.432,62.22-25.633,92.634-11.605v5.224c-28.657-14.877-73.257,3.501-91.008,10.867
					c-1.482,0.607-2.789,1.149-3.898,1.594c-16.504,6.636-58.172,15.851-76.072,17.633
					C201.839,121.547,200.102,121.625,198.339,121.625z"/>
				<g>
					<path style="fill:#ABDE4A;" d="M253.179,73.512c0,0,12.839,22.956,19.194,22.956c6.361,0,18.764-3.905,22.473-8.307
						c2.384-2.835,4.083-14.649,4.083-14.649H253.179z"/>
				</g>
				<g>
					<polygon style="fill:#D8D8D8;" points="258.228,134.843 245.153,136.816 244.572,132.42 257.653,130.442 					"/>
				</g>
				<g>
					<polygon style="fill:#D8D8D8;" points="250.07,142.629 245.996,143.236 244.572,132.42 248.641,131.8 					"/>
				</g>
				<g>
					<polygon style="fill:#D8D8D8;" points="260.565,149.473 247.491,151.445 246.91,147.05 259.991,145.071 					"/>
				</g>
				<g>
					<polygon style="fill:#D8D8D8;" points="252.402,157.258 248.333,157.865 246.91,147.05 250.978,146.436 					"/>
				</g>
				<g>
					<polygon style="fill:#D8D8D8;" points="291.691,180.828 278.604,182.8 278.023,178.405 291.104,176.433 					"/>
				</g>
				<g>
					<polygon style="fill:#D8D8D8;" points="283.528,188.605 279.453,189.22 278.023,178.405 282.098,177.792 					"/>
				</g>
				<g>
					<polygon style="fill:#D8D8D8;" points="291.691,194.843 278.604,196.815 278.023,192.413 291.104,190.44 					"/>
				</g>
				<g>
					<polygon style="fill:#D8D8D8;" points="283.528,202.621 279.453,203.235 278.023,192.413 282.098,191.8 					"/>
				</g>
				<g>
					<polygon style="fill:#D8D8D8;" points="262.087,163.403 249.012,165.376 248.431,160.974 261.513,159.001 					"/>
				</g>
				<g>
					<g>
						<path style="fill:#FFAF00;" d="M246.23,172.573l-1.463-0.77c2.54-5.565,24.96-5.996,27.514-6.029l0.013,1.751
							C263.06,167.635,247.817,169.111,246.23,172.573z"/>
					</g>
				</g>
				<g>
					<path style="fill:#D8D8D8;" d="M232.751,119.222c0,0,1.729,4.285,2.769,6.322c1.045,2.038,14.23-5.251,23.158-4.957
						c8.928,0.294,3.488-8.497,3.488-8.497L232.751,119.222z"/>
				</g>
				<g>
					<polygon style="fill:#D8D8D8;" points="299.438,135.954 296.813,136.738 293.188,122.859 295.813,122.076 					"/>
				</g>
				<g>
					<polygon style="fill:#D8D8D8;" points="294.814,117.87 292.194,118.654 288.557,104.775 291.183,103.985 					"/>
				</g>
				<g>
					<polygon style="fill:#D8D8D8;" points="290.634,173.801 288.08,172.789 292.737,159.263 295.297,160.275 					"/>
				</g>
				<g>
					<polygon style="fill:#D8D8D8;" points="296.388,156.115 293.834,155.109 298.49,141.583 301.044,142.596 					"/>
				</g>
				<g>
					<polygon style="fill:#D8D8D8;" points="267.605,161.614 264.902,161.927 263.452,147.599 266.163,147.285 					"/>
				</g>
				<g>
					<rect x="170.256" y="172.188" style="fill:#ABDE4A;" width="31.453" height="40.955"/>
				</g>
				<g>
					<rect x="172.868" y="155.971" style="fill:#D8D8D8;" width="5.598" height="5.956"/>
				</g>
				<g>
					<rect x="172.868" y="163.403" style="fill:#D8D8D8;" width="5.598" height="5.956"/>
				</g>
				<g>
					<rect x="181.241" y="156.232" style="fill:#D8D8D8;" width="5.597" height="5.956"/>
				</g>
				<g>
					<rect x="181.241" y="163.665" style="fill:#D8D8D8;" width="5.597" height="5.956"/>
				</g>
				<g>
					<rect x="235.095" y="209.453" style="fill:#D8D8D8;" width="5.591" height="5.948"/>
				</g>
				<g>
					<rect x="235.095" y="216.884" style="fill:#D8D8D8;" width="5.591" height="5.956"/>
				</g>
				<g>
					<rect x="243.467" y="209.714" style="fill:#D8D8D8;" width="5.591" height="5.949"/>
				</g>
				<g>
					<rect x="243.467" y="217.145" style="fill:#D8D8D8;" width="5.591" height="5.956"/>
				</g>
				<g>
					<rect x="235.095" y="226.941" style="fill:#D8D8D8;" width="5.591" height="5.957"/>
				</g>
				<g>
					<rect x="235.095" y="234.381" style="fill:#D8D8D8;" width="5.591" height="5.949"/>
				</g>
				<g>
					<rect x="243.467" y="227.204" style="fill:#D8D8D8;" width="5.591" height="5.95"/>
				</g>
				<g>
					<rect x="243.467" y="234.637" style="fill:#D8D8D8;" width="5.591" height="5.949"/>
				</g>
				<g>
					<rect x="172.868" y="214.619" style="fill:#D8D8D8;" width="5.598" height="5.95"/>
				</g>
				<g>
					<rect x="181.45" y="214.619" style="fill:#D8D8D8;" width="5.59" height="5.95"/>
				</g>
				<g>
					<rect x="190.025" y="214.619" style="fill:#D8D8D8;" width="5.597" height="5.95"/>
				</g>
				<g>
					<rect x="198.607" y="214.619" style="fill:#D8D8D8;" width="5.591" height="5.95"/>
				</g>
				<g>
					<rect x="204.197" y="172.188" style="fill:#D8D8D8;" width="4.591" height="40.955"/>
				</g>
				<g>
					<path style="fill:#D8D8D8;" d="M170.256,121.828c0,0,4.297,4.147,16.784,4.075c12.487-0.065,21.605-3.422,25.353-2.031
						c3.742,1.378-11.971,5.604-16.771,9.757c-4.806,4.16-18.965,14.656-25.366,14.95V121.828z"/>
				</g>
				<g>
					<path style="fill:#ABDE4A;" d="M332.426,214.619c0,0-2.247,3.846,0,9.745c2.246,5.901,4.284,9.404,4.284,9.404l25.94-20.626
						l-11.639-17.854C351.012,195.288,336.514,208.192,332.426,214.619z"/>
				</g>
				<g>
					<path style="fill:#FFFFFF;" d="M196.197,267.656c-6.086,0-11.03-5.296-11.03-11.809c0-6.51,4.944-11.807,11.03-11.807
						c6.081,0,11.024,5.297,11.024,11.807C207.221,262.36,202.278,267.656,196.197,267.656z M196.197,245.79
						c-5.186,0-9.398,4.515-9.398,10.058c0,5.552,4.212,10.058,9.398,10.058c5.179,0,9.392-4.506,9.392-10.058
						C205.589,250.305,201.376,245.79,196.197,245.79z"/>
				</g>
				<g>
					<polygon style="fill:#FFFFFF;" points="187.361,249.383 180.464,225.446 182.025,224.936 188.928,248.873 					"/>
				</g>
				<g>
					<polygon style="fill:#FFFFFF;" points="206.817,254.496 205.661,253.263 229.322,228.117 230.471,229.359 					"/>
				</g>
				<g>
					<polygon style="fill:#FFFFFF;" points="200.592,292.142 198.568,266.238 200.2,266.088 202.218,291.996 					"/>
				</g>
				<g>
					<path style="fill:#D8D8D8;" d="M278.709,104.122c0,0,12.728,32.283,7.177,44.456c-5.544,12.167-8.399,13.923-8.811,10.423
						c-0.411-3.507,0.203-39.577-6.747-52.038L278.709,104.122z"/>
				</g>
				<g>
					<polygon style="fill:#D8D8D8;" points="201.735,144.66 193.545,151.472 191.318,148.402 199.508,141.583 					"/>
				</g>
				<g>
					<polygon style="fill:#D8D8D8;" points="212.434,135.438 204.047,142.491 201.8,139.428 210.186,132.381 					"/>
				</g>
				<g>
					<polygon style="fill:#D8D8D8;" points="206.098,150.008 197.915,156.827 195.681,153.757 203.871,146.939 					"/>
				</g>
				<g>
					<polygon style="fill:#D8D8D8;" points="216.795,140.8 208.404,147.847 206.164,144.79 214.549,137.743 					"/>
				</g>
				<g>
					<rect x="190.025" y="160.595" style="fill:#D8D8D8;" width="18.763" height="8.764"/>
				</g>
				<g>
					<path style="fill:#ABDE4A;" d="M212.969,130.442l6.308,8.517c0,0,5.983-6.29,7.217-7.159c1.221-0.861-2.456-6.837-2.456-6.837
						S219.474,129.684,212.969,130.442z"/>
				</g>
				<g>
					<path style="fill:#FFFFFF;" d="M330.609,123.513l-0.836-1.509c0.188-0.111,18.379-11.579,33.099-15.236l0.372,1.705
						C348.759,112.071,330.785,123.401,330.609,123.513z"/>
				</g>
				<g>
					<path style="fill:#ABDE4A;" d="M187.282,228.738l2.743,13.324c0,0,12.063-2.613,16.472,5.041l15.491-16.092L187.282,228.738z"
						/>
				</g>
				<g>
					<path style="fill:#ABDE4A;" d="M209.67,255.848l14.302-14.537l-2.475,47.147l-16.863,1.057l-1.091-20.919
						C203.544,268.596,209.88,263.065,209.67,255.848z"/>
				</g>
				<g>
					<path style="fill:#ABDE4A;" d="M172.868,229.612h6.374l4.284,19.517c0,0-6.047,18.742,12.095,21.807l0.575,18.579h-23.329
						V229.612z"/>
				</g>
				<g>
					<path style="fill:#D8D8D8;" d="M311.793,73.512c0,0-6.739,10.821-2.043,9.678c4.695-1.149,32.269-5.818,39.623-4.8
						c0,0,5.106,0.366,3.474-4.878H311.793z"/>
				</g>
				<g>
					<polygon style="fill:#D8D8D8;" points="334.652,93.346 324.53,95.756 323.738,91.962 333.862,89.552 					"/>
				</g>
				<g>
					<polygon style="fill:#D8D8D8;" points="348.583,93.294 338.186,95.815 337.382,92.021 347.779,89.499 					"/>
				</g>
				<g>
					<polygon style="fill:#D8D8D8;" points="337.382,100.98 327.26,103.391 326.462,99.596 336.593,97.186 					"/>
				</g>
				<g>
					<polygon style="fill:#D8D8D8;" points="351.77,100.798 341.373,103.319 340.564,99.524 350.967,96.997 					"/>
				</g>
				<g>
					<polygon style="fill:#D8D8D8;" points="339.172,106.663 329.755,111.319 328.225,107.793 337.644,103.129 					"/>
				</g>
				<g>
					<polygon style="fill:#D8D8D8;" points="341.145,114.089 331.426,117.987 330.153,114.35 339.87,110.451 					"/>
				</g>
				<g>
					<polygon style="fill:#D8D8D8;" points="353.455,107.897 343.045,110.359 342.254,106.559 352.671,104.097 					"/>
				</g>
				<g>
					<polygon style="fill:#D8D8D8;" points="257.496,175.936 250.234,176.707 249.979,173.984 257.241,173.213 					"/>
				</g>
				<g>
					<polygon style="fill:#D8D8D8;" points="267.083,174.747 259.619,175.57 259.358,172.855 266.815,172.023 					"/>
				</g>
				<g>
					<polygon style="fill:#D8D8D8;" points="258.215,180.874 250.959,181.645 250.704,178.921 257.96,178.15 					"/>
				</g>
				<g>
					<polygon style="fill:#D8D8D8;" points="267.802,179.685 260.344,180.508 260.082,177.792 267.534,176.962 					"/>
				</g>
				<g>
					<polygon style="fill:#D8D8D8;" points="258.684,186.732 251.423,187.509 251.175,184.785 258.43,184.015 					"/>
				</g>
				<g>
					<polygon style="fill:#D8D8D8;" points="268.265,185.544 260.814,186.373 260.546,183.655 268.004,182.826 					"/>
				</g>
				<g>
					<polygon style="fill:#D8D8D8;" points="259.403,191.67 252.141,192.439 251.886,189.723 259.148,188.952 					"/>
				</g>
				<g>
					<polygon style="fill:#D8D8D8;" points="268.99,190.48 261.526,191.31 261.265,188.593 268.723,187.764 					"/>
				</g>
				<g>
					<rect x="232.751" y="244.916" style="fill:#D8D8D8;" width="18.645" height="41.544"/>
				</g>
				<g>
					<rect x="216.795" y="208.186" style="fill:#D8D8D8;" width="9.947" height="16.179"/>
				</g>
				<g>
					<path style="fill:#D8D8D8;" d="M335.646,125.903l20.879-9.692c0,0-3.357,9.692,1.855,35.234l-13.559,10.743
						C344.82,162.189,341.145,151.445,335.646,125.903z"/>
				</g>
				<g>
					<path style="fill:#ABDE4A;" d="M290.294,258.762c-6.72-6.721-14.746-23.375-7.504-24.993
						c6.276-1.405,17.503,32.575,29.892,37.388c12.383,4.807,43.026,17.855,50.38,5.211c7.354-12.649,5.31-19.643,11.436-20.519
						v36.294h-64.865C309.632,292.142,309.437,277.93,290.294,258.762z"/>
				</g>
				<g>
					<polygon style="fill:#D8D8D8;" points="237.89,203.235 245.499,203.235 241.692,169.62 					"/>
				</g>
				<g>
					<path style="fill:#D8D8D8;" d="M226.742,141.583c0,0-9.979,11.69-9.947,27.776c0.027,16.092,0,33.876,0,33.876h9.947
						C226.742,203.235,235.513,154.129,226.742,141.583z"/>
				</g>
				<g>
					<polygon style="fill:#FFFFFF;" points="358.32,198.742 354.447,196.3 370.023,167.955 373.896,170.392 					"/>
				</g>
				<g>
					<polygon style="fill:#D8D8D8;" points="347.871,165.774 358.379,156.827 364.172,172.023 356.021,186.425 					"/>
				</g>
				<g>
					<path style="fill:#D8D8D8;" d="M312.682,95.815c0,0-10.547,9.431-4.597,12.147c5.956,2.717,17.184,10.77,15.653,22.479
						c-1.527,11.716,3.045,16.053,5.454,17.823C331.603,150.035,331.753,118.118,312.682,95.815z"/>
				</g>
				<g>
					<path style="fill:#D8D8D8;" d="M338.689,170.58c0,0,10.835,19.064,4.897,21.866c-10.259,4.847-15.653,23.608-19.848,23.832
						C320.199,216.46,340.047,187.764,338.689,170.58z"/>
				</g>
				<g>
					<polygon style="fill:#D8D8D8;" points="254.459,196.815 267.083,196.815 268.99,234.637 260.082,240.33 					"/>
				</g>
				<g>
					<polygon style="fill:#D8D8D8;" points="261.265,244.916 270.329,241.311 274.959,266.78 267.802,292.142 259.403,292.142 
						259.403,267.414 					"/>
				</g>
				<g>
					<polygon style="fill:#D8D8D8;" points="284.058,226.858 281.341,227.061 280.42,212.673 283.137,212.477 					"/>
				</g>
			</g>
		</g>
		<g>
			<path style="fill:#F42A5E;" d="M322.511,134.119L322.511,134.119c1.077-2.547,1.672-5.342,1.672-8.288
				c0-11.729-9.503-21.238-21.218-21.238c-11.729,0-21.233,9.509-21.233,21.238c0,2.508,0.438,4.917,1.242,7.151l0,0l0,0
				c0.561,1.561,19.991,40.211,19.991,40.211s19.213-38.291,19.539-39.068L322.511,134.119z M302.965,114.552
				c6.224,0,11.271,5.048,11.271,11.279c0,6.23-5.048,11.272-11.271,11.272c-6.232,0-11.279-5.042-11.279-11.272
				C291.686,119.601,296.733,114.552,302.965,114.552z"/>
		</g>
		<g>
			<path style="fill:#F42A5E;" d="M280.59,192.982L280.59,192.982c0.738-1.738,1.142-3.651,1.142-5.67
				c0-8.013-6.498-14.518-14.511-14.518c-8.013,0-14.512,6.505-14.512,14.518c0,1.719,0.301,3.364,0.842,4.893l0,0l0,0
				c0.386,1.07,13.669,27.493,13.669,27.493s13.14-26.175,13.363-26.709L280.59,192.982z M267.221,179.601
				c4.257,0,7.712,3.454,7.712,7.712c0,4.265-3.455,7.713-7.712,7.713c-4.259,0-7.713-3.448-7.713-7.713
				C259.507,183.055,262.962,179.601,267.221,179.601z"/>
		</g>
		<g>
			<path style="fill:#F42A5E;" d="M326.626,237.811L326.626,237.811c0.386-0.914,0.6-1.921,0.6-2.984
				c0-4.215-3.415-7.635-7.634-7.635c-4.219,0-7.635,3.42-7.635,7.635c0,0.906,0.15,1.77,0.444,2.573l0,0l0,0
				c0.202,0.562,7.19,14.465,7.19,14.465s6.909-13.773,7.027-14.054H326.626z M319.592,230.769c2.24,0,4.056,1.815,4.056,4.058
				c0,2.24-1.815,4.056-4.056,4.056c-2.24,0-4.056-1.815-4.056-4.056C315.536,232.584,317.352,230.769,319.592,230.769z"/>
		</g>
	</g>
	<path style="fill:#EE9D7F;" d="M213.66,269.925c0,0-4.334-26.335,3.087-38.268c7.419-11.931,3.239-34.549,12.763-40.521
		c9.523-5.97,11.779,3.705,10.671,10.728c-1.108,7.023-3.104,26.457,2.118,41.776c9.259,27.162,5.235,43.943-5.843,57.42
		c0,0-11.076,17.761-5.83,28.94h-41.489L213.66,269.925z"/>
	<path style="fill:#EE9D7F;" d="M375.607,269.925c0,0,4.332-26.335-3.087-38.268c-7.419-11.931-3.241-34.549-12.765-40.521
		c-9.522-5.97-11.78,3.705-10.67,10.728c1.107,7.023,3.104,26.457-2.118,41.776c-9.259,27.162-5.234,43.943,5.844,57.42
		c0,0,11.185,17.761,5.938,28.94h41.38L375.607,269.925z"/>
	<g>
		<path style="fill:#F42A5E;" d="M379.495,92.831c0,14.539-11.786,26.325-26.325,26.325c-14.537,0-26.322-11.786-26.322-26.325
			c0-14.536,11.785-26.321,26.322-26.321C367.709,66.509,379.495,78.295,379.495,92.831z"/>
		<g>
			<path style="fill:#FFAF00;" d="M353.17,120.12c-15.045,0-27.286-12.242-27.286-27.289c0-15.044,12.241-27.285,27.286-27.285
				c15.046,0,27.287,12.241,27.287,27.285C380.457,107.878,368.216,120.12,353.17,120.12z M353.17,67.472
				c-13.984,0-25.36,11.376-25.36,25.359c0,13.987,11.376,25.363,25.36,25.363c13.984,0,25.361-11.376,25.361-25.363
				C378.531,78.848,367.154,67.472,353.17,67.472z"/>
		</g>
		<g>
			<path style="fill:#FFFFFF;" d="M334.544,99.06v-1.753l1.602-1.448c2.708-2.423,4.024-3.815,4.063-5.268
				c0-1.011-0.609-1.813-2.039-1.813c-1.068,0-2.006,0.535-2.652,1.031l-0.819-2.077c0.932-0.708,2.385-1.278,4.063-1.278
				c2.803,0,4.349,1.639,4.349,3.889c0,2.079-1.508,3.739-3.298,5.342l-1.147,0.952v0.041h4.675v2.382H334.544z"/>
			<path style="fill:#FFFFFF;" d="M350.257,99.06v-2.957h-5.495v-1.886l4.695-7.552h3.546v7.264h1.486v2.174h-1.486v2.957H350.257z
				 M350.257,93.929v-2.746c0-0.742,0.037-1.506,0.094-2.306h-0.075c-0.401,0.8-0.725,1.522-1.146,2.306l-1.659,2.708v0.038H350.257
				z"/>
			<path style="fill:#FFFFFF;" d="M355.209,99.824l4.079-13.829h1.932l-4.087,13.829H355.209z"/>
			<path style="fill:#FFFFFF;" d="M370.903,86.665v1.828l-5.11,10.566h-3.072l5.111-9.973v-0.041h-5.684v-2.38H370.903z"/>
		</g>
	</g>
	<g>
		<path style="fill:#F42A5E;" d="M474.682,128.976L474.682,128.976c0.547-1.281,0.843-2.691,0.843-4.176
			c0-5.904-4.778-10.696-10.684-10.696c-5.904,0-10.691,4.792-10.691,10.696c0,1.263,0.216,2.478,0.62,3.602l0,0l0,0
			c0.285,0.785,10.07,20.251,10.07,20.251s9.676-19.282,9.842-19.674V128.976z M464.84,119.12c3.134,0,5.679,2.545,5.679,5.68
			c0,3.138-2.545,5.68-5.679,5.68c-3.135,0-5.677-2.542-5.677-5.68C459.163,121.665,461.705,119.12,464.84,119.12z"/>
	</g>
	<g>
		<path style="fill:#FFAF00;" d="M416.46,110.811L416.46,110.811c0.474-1.107,0.729-2.327,0.729-3.609
			c0-5.104-4.13-9.246-9.235-9.246c-5.104,0-9.24,4.142-9.24,9.246c0,1.091,0.186,2.141,0.536,3.113l0,0l0,0
			c0.246,0.679,8.704,17.505,8.704,17.505s8.363-16.668,8.507-17.006V110.811z M407.953,102.291c2.708,0,4.909,2.2,4.909,4.91
			c0,2.712-2.201,4.909-4.909,4.909c-2.711,0-4.907-2.197-4.907-4.909C403.046,104.491,405.242,102.291,407.953,102.291z"/>
	</g>
	<g>
		<g>
			<g>
				<g>
					<path style="fill:#FFA09A;" d="M188.839,236.652c-0.195-0.533-1.156-1.757-3.493-3.342c-8.254-5.604-7.347-20.69-7.347-20.69
						l-3.211-1.956c0,0-2.18,0.131-3.115,2.795c-0.374,1.073-1.048,13.808,7.978,19.036
						C189.196,238.034,188.98,237.017,188.839,236.652z"/>
				</g>
			</g>
		</g>
		<g>
			<path style="fill:#EA493D;" d="M152.444,255.691l0.543-0.478c2.38,2.713,5.033,4.088,7.779,3.936
				c2.623-0.127,5.048-1.657,7.021-4.418c5.348-7.488,12.515-11.559,15.348-12.961c0.111-0.056,0.22-0.11,0.326-0.165
				c0.214-0.117,0.423-0.23,0.619-0.344l-0.457-0.313c0.708-1.041,0.12-2.107-0.353-2.963c-0.122-0.217-0.229-0.416-0.308-0.592
				c-1.159-2.619-1.286-4.393-0.375-5.271c0.786-0.76,2.069-0.55,2.74-0.224c1.244,0.605,3.116,2.331,3.152,4.607
				c0.027,1.482-0.767,3.675-4.679,5.738c-0.11,0.059-0.228,0.12-0.344,0.175c-2.785,1.379-9.826,5.381-15.079,12.734
				c-2.105,2.943-4.723,4.579-7.577,4.721c-0.137,0.007-0.273,0.01-0.406,0.01C157.598,259.886,154.857,258.445,152.444,255.691z
				 M183.095,232.644c-0.375,0.368-0.812,1.427,0.532,4.455c0.07,0.158,0.172,0.341,0.282,0.537c0.471,0.859,1.172,2.121,0.49,3.435
				c2.228-1.376,3.385-2.936,3.356-4.549c-0.029-1.936-1.698-3.459-2.745-3.968c-0.259-0.127-0.63-0.224-0.994-0.224
				C183.67,232.33,183.331,232.416,183.095,232.644z"/>
		</g>
		<g>
			<g>
				<path style="fill:#FFA09A;" d="M181.434,254.513c-1.779,11.273-7.45,14.55-4.577,19.407c0.309,0.526,1.66,1.282,1.536,1.854
					c-0.129,0.57-3.966,0.172-4.545-2.589c0,0-1.343-5.907,0.335-13.804C176.222,249.747,183.215,243.246,181.434,254.513z"/>
			</g>
		</g>
		<g>
			<g>
				<path style="fill:#FFA09A;" d="M158.255,251.332c-10.093,0.31-13.79-4.934-17.606-1.034c-0.412,0.423-0.869,1.963-1.382,1.942
					c-0.516-0.021-0.742-4.067,1.585-5.191c0,0,4.951-2.517,12.088-2.29C161.641,245.03,168.347,251.026,158.255,251.332z"/>
			</g>
		</g>
		<g>
			<g>
				<path style="fill:#007DC9;" d="M177.208,227.19c0,0,0.936-5.872-6.508-3.098c-7.453,2.771-8.185,17.403-11.17,18.665
					c-2.984,1.262-5.913,0.85-15.493,2.383c0,0-1.519,1.386-0.693,4.077c0,0,10.217,8.929,21.23,2.909
					C175.593,246.113,178.944,230.523,177.208,227.19z"/>
			</g>
		</g>
		<g>
			<g>
				<path style="fill:#007DC9;" d="M164.88,224.31c-4.353-1.138-7.629-2.747-8.063,5.03c-0.56,10.021,15.511,19.73,16.157,23.233
					c0.641,3.497-0.133,5.858-0.425,16.768c0,0,1.642,1.97,4.318,1.409c0,0,8.271-13.064,6.048-21.01
					C179.258,236.632,169.377,225.489,164.88,224.31z"/>
			</g>
		</g>
		<g>
			<g>
				<path style="fill:#1D1B3A;" d="M176.445,228.524c0,0-7.61,5.876-18.88,5.23c0,0-0.373-0.529-1.008-3.252
					C155.965,227.968,176.445,228.524,176.445,228.524z"/>
			</g>
		</g>
		<g>
			<g>
				<g>
					<path style="fill:#FFFFFF;" d="M173.564,270.148c6.418-14.161,2.599-20.157-1.982-24.155c-8.131-7.1-11.059-14.828-11.086-14.9
						l-0.251,0.093c0.029,0.076,2.977,7.863,11.16,15.007c4.737,4.133,8.246,9.885,1.915,23.85L173.564,270.148z"/>
				</g>
			</g>
		</g>
		<g>
			<g>
				<path style="fill:#E32E1B;" d="M171.732,205.861c-1.644,0.561-3.376,1.537-1.992,6.636c0.947,3.462,2.186,5.617,2.186,5.617
					s6.109,1.296,8.257-2.438C180.183,215.677,177.547,203.874,171.732,205.861z"/>
			</g>
		</g>
		<g>
			<g>
				<path style="fill:#323056;" d="M170.311,193.182c-1.661-1.722-7.628-4.531-11.815,2.136c-0.914,1.461-1.9,4.05-5.181,4.747
					c-2.315,0.495-7.477,3.762-3.433,9.579c4.034,5.816-3.497,6.474,0.93,8.767c11.861,6.116,15.897-0.172,19.143-6.584
					C175.05,201.742,173.657,196.654,170.311,193.182z"/>
			</g>
		</g>
		<g>
			<g>
				<path style="fill:#EA493D;" d="M155.8,228.404c0.056-0.134,0.097-0.258,0.148-0.398c1.698-5.388,3.025-8.784,1.294-14.247
					c-2.485-7.843,3.973-8.682,7.896-9.276c1.987-0.299,4.643-0.402,6.979,0.402c5.122,1.279,4.787,5.02,5.308,6.924
					c0.592,4.388-0.747,9.792-0.039,14.701C178.171,232.045,152.938,234.273,155.8,228.404z"/>
			</g>
		</g>
		<g>
			<g>
				<g>
					<path style="fill:#FF8998;" d="M164.313,199.326c0,0,0.701,3.647-0.513,5.246c-0.768,1.024,5.56,3.304,5.433,1.929
						c-0.16-1.768-1.25-2.857-0.011-4.848L164.313,199.326z"/>
				</g>
			</g>
		</g>
		<g>
			<g>
				<g>
					<path style="fill:#FFA09A;" d="M169.942,194.265c1.113,1.86,2.695,9.867-1.363,10.308c-1.831,0.203-4.83-2.046-5.804-5.305
						c-0.405-1.338,0.423-3.769,2.345-5.501C165.99,192.98,168.653,192.092,169.942,194.265z"/>
				</g>
			</g>
		</g>
		<g>
			<g>
				<g>
					<path style="fill:#323056;" d="M171.415,197.211c-0.106,0.929-1.777-2.609-2.86-0.876c-1.136,1.818-3.252,0.783-4.548,4.256
						c-0.888,2.379-2.689-2.644-2.813-3.025c-0.55-1.623-0.55-1.623,1.891-4.191C165.52,190.796,171.935,192.566,171.415,197.211z"
						/>
				</g>
			</g>
		</g>
		<g>
			<g>
				<g>
					<path style="fill:#FF8998;" d="M162.401,211.317c0,0-5.415-3.898-6.783,2.349c-1.363,6.243,0.041,14.783,1.972,12.328
						C159.568,223.475,162.275,214.051,162.401,211.317z"/>
				</g>
			</g>
			<g>
				<g>
					<path style="fill:#FFA09A;" d="M168.505,238.722c-0.095-0.554-0.816-1.938-2.824-3.923c-7.096-7.017-5.133-15.608-5.133-15.608
						l-2.485-4.47c0,0-0.795-4.387-2.204-1.932c-0.563,0.983-3.548,13.381,4.366,20.171
						C168.607,240.145,168.582,239.11,168.505,238.722z"/>
				</g>
			</g>
		</g>
		<g>
			<g>
				<path style="fill:#E32E1B;" d="M162.088,206.332c-1.624-0.598-3.79-0.883-6.508,3.593c-1.863,3.07-2.406,5.573-2.406,5.573
					s4.615,3.971,8.467,3.51C161.641,219.008,167.851,208.488,162.088,206.332z"/>
			</g>
		</g>
		<g>
			<g>
				<path style="fill:#341F35;" d="M131.937,262.121c0,0,2.08-5.085-0.574-6.306c-2.652-1.224-3.233-4.679-1.901-8.629
					c0.798-2.358-5.893,4.968-2.495,9.578c1.161,1.574,3.733,0.814,4.145,5.631L131.937,262.121z"/>
			</g>
			<g>
				<path style="fill:#341F35;" d="M141.532,263.672c0,0,1.977,2.87-2.599,6.257c-4.573,3.383-6.529,4.391-5.776,5.89
					c0.743,1.495-2.568,0.966-3.29-0.904C129.148,273.036,135.681,257.287,141.532,263.672z"/>
			</g>
			<g>
				<path style="fill:#341F35;" d="M154.521,262.31c0,0,2.662,2.242-0.846,6.722c-3.511,4.477-5.128,5.972-4.011,7.213
					c1.122,1.244-2.213,1.619-3.405,0C145.064,274.632,147.178,257.71,154.521,262.31z"/>
			</g>
			<g>
				<path style="fill:#5F4465;" d="M134.729,261.543c0,0,3.426-0.622,4.64,4.938c1.208,5.556,1.325,7.752,2.996,7.688
					c1.667-0.072-0.169,2.736-2.177,2.626C138.184,276.678,126.505,264.26,134.729,261.543z"/>
			</g>
			<g>
				<path style="fill:#341F35;" d="M157.007,255.097c0,0,4.269,9.991-2.241,13.56c-5.347,2.933-20.478,4.91-24.627-3.232
					c-0.983-1.929-1.992-5.976,3.355-7.966c5.587-2.076,10.948-0.371,13.189-2.362c2.238-1.987,0.622-7.715,3.857-8.086
					c3.235-0.371,7.588,1.495,10.073,0c2.489-1.492,2.614,3.359,1.121,4.48C160.24,252.611,156.476,252.917,157.007,255.097z"/>
			</g>
			<g>
				<path style="fill:#5F4465;" d="M149.811,262.461c0,0,3.186-1.402,5.656,3.724c2.472,5.126,3.101,7.233,4.71,6.776
					c1.605-0.454,0.475,2.702-1.506,3.06C156.691,276.378,142.443,267.017,149.811,262.461z"/>
			</g>
			<g>
				<path style="fill:#341F35;" d="M154.047,247.633c0,0,1.253-3.672-1.547-5.535c0,0-1.555,0.994-0.623,5.535H154.047z"/>
			</g>
			<g>
				<path style="fill:#341F35;" d="M151.857,247.874c0,0-1.146-3.699-4.507-3.565c0,0-0.674,1.719,2.754,4.844L151.857,247.874z"/>
			</g>
			<g>
				<path style="fill:#EA493D;" d="M157.007,255.097c0,0-4.28,1.895-9.293-1.853l-0.418,1.059c0,0,2.78,3.311,10.165,2.053
					L157.007,255.097z"/>
			</g>
			<g>
				<path style="fill:#5F4465;" d="M162.294,246.482c0,0-0.591-0.402-1.432,0c-0.837,0.405,0,1.368,0.377,1.461
					c0.371,0.093,1.615,0.378,1.771-0.31C163.011,247.633,162.979,246.887,162.294,246.482z"/>
			</g>
			<g>
				<path style="fill:#5F4465;" d="M153.871,250.222l0.927-1.12c-0.084-0.072-0.882-0.716-2.209-0.475l0.258,1.434
					C153.493,249.94,153.855,250.208,153.871,250.222z"/>
			</g>
		</g>
		<g>
			<path style="fill:#FBC6B4;" d="M185.346,233.311c0,0,3.074,0.299,2.935,1.316c-0.141,1.015-2.935,0-2.935,0V233.311z"/>
		</g>
		<g>
			<path style="fill:#BBC3FF;" d="M171.202,200.22c0,0-2.352,1.42-5.605-0.131c-0.273-0.134-1.058-0.622-1.058-0.622l-0.417,0.842
				c0,0,1.645,1.094,1.421,1.465c-0.448,0.757-1.269,0.196-1.88-0.547c0,0,1.502,3.721,5.248,3.778
				C169.954,205.019,171.6,204.541,171.202,200.22z"/>
		</g>
		<g>
			<g>
				<g>
					<polygon style="fill:#F42A5E;" points="179.613,190.38 180.138,190.38 180.138,186.22 175.98,186.22 175.98,186.746 
						179.613,186.746 					"/>
				</g>
				<g>
					<polygon style="fill:#F42A5E;" points="178.329,191.432 178.852,191.432 178.852,187.273 174.695,187.273 174.695,187.798 
						178.329,187.798 					"/>
				</g>
				<g>
					<polygon style="fill:#F42A5E;" points="151.585,190.242 152.109,190.242 152.109,186.608 155.743,186.608 155.743,186.086 
						151.585,186.086 					"/>
				</g>
				<g>
					<polygon style="fill:#F42A5E;" points="152.871,191.295 153.394,191.295 153.394,187.66 157.027,187.66 157.027,187.138 
						152.871,187.138 					"/>
				</g>
			</g>
			<g>
				<g>
					<polygon style="fill:#F42A5E;" points="175.98,211.266 180.138,211.266 180.138,207.109 179.613,207.109 179.613,210.743 
						175.98,210.743 					"/>
				</g>
				<g>
					<polygon style="fill:#F42A5E;" points="174.695,210.214 178.852,210.214 178.852,206.058 178.329,206.058 178.329,209.691 
						174.695,209.691 					"/>
				</g>
				<g>
					<polygon style="fill:#F42A5E;" points="151.585,211.403 155.743,211.403 155.743,210.877 152.109,210.877 152.109,207.247 
						151.585,207.247 					"/>
				</g>
				<g>
					<polygon style="fill:#F42A5E;" points="152.871,210.352 157.027,210.352 157.027,209.829 153.394,209.829 153.394,206.195 
						152.871,206.195 					"/>
				</g>
			</g>
		</g>
		<path style="fill:#F42A5E;" d="M178.283,274.759c0,0,1.1,1.65,0,1.65c-1.1,0-3.906-0.825-4.566-2.695v-0.825
			c0,0,1.603,1.368,3.249,1.18C176.966,274.068,177.939,274.103,178.283,274.759z"/>
		<path style="fill:#F42A5E;" d="M139.626,252.24c0,0-1.436,1.43-1.628,0.265c-0.192-1.162,0.131-4.267,1.861-5.274l0.814-0.13
			c0,0-1.069,1.918-0.595,3.63C140.078,250.73,140.212,251.766,139.626,252.24z"/>
	</g>
</g>
</svg>
